<svg xmlns="http://www.w3.org/2000/svg" width="24" height="24" viewBox="0 0 24 24">
  <g fill="#000000" fill-rule="evenodd" transform="translate(0 1)">
    <path d="M11.9302,10.7332 C11.3072,11.6232 10.4812,12.2862 9.5752,12.7122 L2.5872,7.8192 C2.6782,6.8222 3.0182,5.8192 3.6412,4.9292 C5.4082,2.4062 8.7042,1.6542 10.9912,3.2542 C13.2762,4.8542 13.6972,8.2102 11.9302,10.7332 M5.6972,12.9742 L5.0522,12.7472 L4.6592,13.3062 L2.2042,16.8142 L1.2532,16.1482 L3.7092,12.6412 L4.1012,12.0812 L3.6672,11.5532 C3.0482,10.8002 2.7012,9.8842 2.5962,8.9242 L8.5342,13.0822 C7.5942,13.3112 6.6162,13.2982 5.6972,12.9742 M11.5062,2.5172 C8.8102,0.6292 4.9582,1.4782 2.9042,4.4132 C1.1682,6.8912 1.2752,10.0602 2.9722,12.1252 L0.0002,16.3692 L2.4252,18.0672 L5.3972,13.8232 C7.9172,14.7122 10.9322,13.7282 12.6672,11.2502 C14.7222,8.3142 14.2022,4.4052 11.5062,2.5172"/>
    <path d="M6.397-.0002C5.283-.0002 4.376.9068 4.376 2.0208 4.376 3.1348 5.283 4.0408 6.397 4.0408 7.51 4.0408 8.418 3.1348 8.418 2.0208 8.418.9068 7.51-.0002 6.397-.0002M21.0513 18.0291C21.2023 17.3271 21.2873 16.6171 21.2873 15.9791 21.2873 13.8131 20.5433 11.7291 19.1963 10.0491 20.1083 9.6751 21.0903 9.4661 22.1053 9.4271 22.6173 10.4811 22.9133 11.6601 22.9133 12.9091 22.9133 14.8561 22.2123 16.6411 21.0513 18.0291M19.6023 19.3751C18.5863 20.1131 17.3943 20.6141 16.0983 20.8071 16.4973 19.7461 16.7073 18.6311 16.7073 17.4761 16.7073 15.8891 16.2973 14.3351 15.5443 12.9491 16.2803 11.9271 17.2073 11.0921 18.2723 10.4941 19.5703 12.0261 20.2873 13.9651 20.2873 15.9791 20.2873 17.0401 20.0243 18.3181 19.6023 19.3751M14.9773 20.9011C14.9563 20.9011 14.9383 20.9041 14.9183 20.9041 11.2793 20.9041 8.2063 18.4591 7.2413 15.1261 9.0763 16.8391 11.5263 17.8941 13.9003 17.8941 14.5073 17.8941 15.1063 17.8181 15.6953 17.7051 15.6663 18.8181 15.4233 19.8901 14.9773 20.9011M14.9183 3.9131C14.2663 3.9131 13.6313 3.9861 13.0183 4.1181 13.2043 4.4171 13.3623 4.7301 13.4903 5.0571 13.9553 4.9721 14.4293 4.9131 14.9183 4.9131 15.4423 4.9131 15.9513 4.9671 16.4473 5.0631 15.5053 5.3781 14.6383 5.8441 13.8563 6.4191 13.9123 6.8131 13.9333 7.2161 13.9143 7.6221 15.1133 6.5851 16.6033 5.8841 18.2483 5.6491 19.5923 6.2681 20.7393 7.2431 21.5583 8.4621 18.8053 8.7121 16.3183 10.1391 14.7023 12.4101 13.8093 12.3721 12.9463 12.1971 12.1323 11.8991 11.8853 12.1751 11.6233 12.4261 11.3453 12.6531 12.3793 13.0921 13.4943 13.3581 14.6563 13.4071 15.2123 14.4221 15.5493 15.5411 15.6553 16.6951 15.0803 16.8161 14.4943 16.8941 13.9003 16.8941 11.6463 16.8941 9.3103 15.8311 7.6353 14.1181 7.0833 14.1491 6.5363 14.1001 5.9993 13.9761 6.5303 18.4391 10.3133 21.9041 14.9183 21.9041 19.8863 21.9041 23.9133 17.8771 23.9133 12.9091 23.9133 7.9401 19.8863 3.9131 14.9183 3.9131"/>
  </g>
</svg>
