<svg xmlns="http://www.w3.org/2000/svg" width="24" height="24" viewBox="0 0 24 24" xmlns:xlink="http://www.w3.org/1999/xlink">
  <defs>
    <path id="a" d="M12.34065,4.3594 C12.34065,4.3594 9.30675004,7.3915 9.13305004,7.5652 L9.13305004,7.5652 C8.22765004,8.4706 7.72635004,9.6811 7.72545004,10.9735 L7.72545004,10.9735 C7.72635004,12.2569 8.22765004,13.462 9.13395004,14.3674 L9.13395004,14.3674 L9.52455004,14.7589 C9.62985004,14.8633 9.76665004,14.9155 9.90345004,14.9155 L9.90345004,14.9155 C10.03935,14.9155 10.17615,14.8642 10.28055,14.7589 L10.28055,14.7589 L11.03655,14.0029 C11.24535,13.7941 11.24535,13.4557 11.03655,13.2469 L11.03655,13.2469 L10.64415,12.8563 C9.62085004,11.8303 9.60555004,10.1491 10.61445,9.1069 L10.61445,9.1069 C10.64505,9.0745 13.85175,5.8696 13.85175,5.8696 L13.85175,5.8696 C14.35575,5.3656 15.02715,5.0875 15.74085,5.0875 L15.74085,5.0875 C16.45365,5.0875 17.12415,5.3656 17.62905,5.8687 L17.62905,5.8687 L17.62905,5.8705 C18.67305,6.9154 18.67305,8.6047 17.62995,9.6487 L17.62995,9.6487 L17.46435,9.8134 C17.72355,10.5082 17.87745,11.2525 17.87745,12.0337 L17.87745,12.0337 C17.87745,12.1768 17.85855,12.3127 17.84955,12.4522 L17.84955,12.4522 L19.14105,11.1598 C21.01935,9.2815 21.01935,6.235 19.14105,4.3594 L19.14105,4.3594 C18.23205,3.4504 17.02515,2.95 15.73995,2.95 L15.73995,2.95 C14.45655,2.95 13.24875,3.4504 12.34065,4.3594 L12.34065,4.3594 Z M13.72035,8.2411 L12.96435,8.9971 C12.75555,9.2059 12.75555,9.5443 12.96435,9.754 L12.96435,9.754 L13.35675,10.1446 C14.38005,11.1706 14.39445,12.8509 13.38645,13.894 L13.38645,13.894 C13.35585,13.9264 10.14915,17.1313 10.14915,17.1313 L10.14915,17.1313 C9.64335004,17.6344 8.97285004,17.9116 8.25915004,17.9116 L8.25915004,17.9116 C7.54635004,17.9116 6.87585004,17.6344 6.37185004,17.1313 L6.37185004,17.1313 L6.37005004,17.1295 C5.32695004,16.0837 5.32695004,14.3953 6.36915004,13.3513 L6.36915004,13.3513 L6.53565004,13.1866 C6.27555004,12.4927 6.12255004,11.7475 6.12165004,10.9654 L6.12165004,10.9654 C6.12165004,10.8241 6.14055004,10.6864 6.14955004,10.5487 L6.14955004,10.5487 L4.85895004,11.8402 C2.97975004,13.7185 2.98155004,16.7641 4.85895004,18.6406 L4.85895004,18.6406 L4.85985004,18.6406 C5.76705004,19.5496 6.97575004,20.05 8.25915004,20.05 L8.25915004,20.05 C9.54345004,20.05 10.75035,19.5496 11.65935,18.6406 L11.65935,18.6406 C11.65935,18.6406 14.69325,15.6085 14.86695,15.4348 L14.86695,15.4348 C15.77235,14.5285 16.27275,13.3189 16.27455,12.0265 L16.27455,12.0265 C16.27275,10.744 15.77235,9.538 14.86605,8.6326 L14.86605,8.6326 L14.47455,8.2411 C14.37105,8.1376 14.23425,8.0854 14.09745,8.0854 L14.09745,8.0854 C13.96155,8.0854 13.82385,8.1367 13.72035,8.2411 L13.72035,8.2411 Z"/>
  </defs>
  <g fill="none" fill-rule="evenodd">
    <use fill="#000000" xlink:href="#a"/>
  </g>
</svg>
