<svg xmlns="http://www.w3.org/2000/svg" width="24" height="24" viewBox="0 0 24 24">
  <g fill="none" fill-rule="evenodd">
    <path stroke="#000000" stroke-width="2.31" d="M5.15885349,19.3648846 C6.06703392,21.0720859 7.8641762,22.2344277 9.93279796,22.2344277 C12.9172674,22.2344277 15.2553078,19.8136209 15.336658,16.8305677 C15.3987369,14.554181 14.4674862,12.2341008 11.2161553,10.8452712" stroke-linecap="round" transform="rotate(75 10.25 16.54)"/>
    <path fill="#000000" fill-rule="nonzero" d="M10.9368738,8.54646066 C10.9368738,7.93894743 10.444387,7.44646064 9.83687378,7.44646064 C9.22936054,7.44646064 8.73687375,7.93894743 8.73687375,8.54646066 L8.73687375,14.8714608 C8.73687375,15.478974 9.22936054,15.9714608 9.83687378,15.9714608 L16.2785693,15.9714608 L18.7354708,21.3766442 C18.9868616,21.9297039 19.6389976,22.1742548 20.1920572,21.9228641 C20.7451169,21.6714733 20.9896679,21.0193374 20.7382771,20.4662777 L17.9882771,14.4162776 C17.8097799,14.0235838 17.4182318,13.7714608 16.9868739,13.7714608 L10.9368738,13.7714608 L10.9368738,8.54646066 Z"/>
    <circle cx="9.8" cy="4.317" r="2.2" fill="#000000"/>
    <polygon fill="#000000" points="11.478 9.84 15.57 14.228 8.187 12.909" transform="rotate(-137 11.879 12.034)"/>
    <path fill="#000000" fill-rule="nonzero" d="M9.89743553,9.44187845 L15.8974355,9.44187845 C16.4497203,9.44187845 16.8974355,8.9941632 16.8974355,8.44187845 C16.8974355,7.8895937 16.4497203,7.44187845 15.8974355,7.44187845 L9.89743553,7.44187845 C9.34515078,7.44187845 8.89743553,7.8895937 8.89743553,8.44187845 C8.89743553,8.9941632 9.34515078,9.44187845 9.89743553,9.44187845 Z"/>
  </g>
</svg>
