<?xml version="1.0" encoding="UTF-8"?>
<svg width="257px" height="56px" viewBox="0 0 257 56" version="1.1" xmlns="http://www.w3.org/2000/svg" xmlns:xlink="http://www.w3.org/1999/xlink">
    <title>Silberinfo_Logo_Silbernetz_quer_Weinrot</title>
    <g id="Alle-Seiten" stroke="none" stroke-width="1" fill="none" fill-rule="evenodd">
        <g id="Silberinfo_Logo_Silbernetz_quer_Weinrot" transform="translate(0.9222, 0.2048)" fill="#FFFFFF" fill-rule="nonzero">
            <g id="Logo">
                <path d="M39.8011002,55.4351083 C56.0008123,55.4101249 71.0800408,46.7851409 79.3824381,32.8756166 L77.4364821,30.9295792 C59.5738695,30.1838341 44.3940014,17.27373 40.9577766,0 L38.5720789,0 C35.1112913,17.4003301 19.7323425,30.3675528 1.69918823,30.9386986 L0,32.6378054 C8.2700178,46.6857227 23.4292993,55.4057416 39.7175324,55.4347012 C39.7223364,55.4347826 39.7262312,55.4374696 39.7310352,55.4374696 C39.7423395,55.4374696 39.7535759,55.4363297 39.7648803,55.4363297 C39.7761846,55.4363297 39.787421,55.4374696 39.7987253,55.4374696 L39.8010866,55.4351083 L39.8011002,55.4351083 Z M40.6318651,53.760415 L40.6318651,45.1734831 C44.3499106,45.1231226 48.1200264,44.7622939 51.8614133,44.0953126 C51.8797201,44.1202146 51.8990039,44.1444517 51.917392,44.1693537 C52.1268135,44.4529793 52.3390713,44.7347999 52.5553323,45.0126443 C52.5689979,45.0302997 52.5830706,45.0473036 52.5968312,45.0648775 C52.7964819,45.3204255 52.9985074,45.5713459 53.2020663,45.8190771 C53.2613834,45.8912456 53.3206055,45.9622741 53.3800854,46.0336283 C53.5600587,46.2493058 53.7407512,46.4608443 53.9220952,46.6681488 C53.9649782,46.7171251 54.0074407,46.7674041 54.0503237,46.8158105 C54.2661641,47.0594027 54.4820181,47.2948526 54.6976956,47.5231508 C54.7554656,47.584327 54.8126521,47.6425042 54.8703407,47.7023912 C55.039159,47.8778862 55.2070816,48.0473559 55.3744478,48.2112887 C55.4351355,48.2706872 55.4956739,48.330805 55.5560359,48.388575 C55.7693658,48.5927039 55.9812164,48.7886227 56.1897422,48.9702923 C56.2198418,48.996565 56.2491407,49.0192686 56.2791589,49.0450663 C56.4609099,49.2010332 56.6399061,49.3462521 56.8163782,49.4825417 C56.8747996,49.5275282 56.9324746,49.5708998 56.9901632,49.6136879 C57.1619942,49.7410209 57.3304867,49.8583387 57.4954916,49.9641079 C57.520068,49.9798905 57.5465035,50.0011285 57.570917,50.0163412 C52.2929719,52.3343487 46.5454163,53.6397589 40.6318651,53.760415 L40.6318651,53.760415 Z M59.15789,47.8294663 C59.1572386,47.8523328 59.1563429,47.8738829 59.1556101,47.8958537 C59.1499104,48.0610893 59.1413745,48.2079503 59.1303009,48.3324334 C59.129161,48.3451219 59.1278582,48.3561955 59.1267183,48.3684769 C59.1149254,48.4924715 59.1014091,48.5997064 59.0868479,48.6869925 C59.0859522,48.692285 59.0850565,48.696424 59.0841609,48.7015537 C59.0689482,48.7898305 59.0530842,48.8625689 59.037953,48.9182897 C58.9442209,48.8811877 58.8252746,48.8212328 58.6892429,48.7427948 C58.6445006,48.7169971 58.5868934,48.6768959 58.5377543,48.6463078 C58.4372776,48.5838288 58.3351724,48.5194634 58.2171218,48.4363164 C58.1490245,48.3883986 58.0697044,48.3257431 57.9960703,48.2706736 C57.8787525,48.1829669 57.7596433,48.0926545 57.6286463,47.9860846 C57.5419166,47.9154632 57.4465696,47.8317462 57.3541403,47.7525889 C57.2186785,47.6365738 57.079797,47.5151848 56.9326239,47.3800488 C56.8291345,47.2851089 56.7197012,47.1795839 56.6106886,47.0748732 C56.4577344,46.9279443 56.3002204,46.7720589 56.1368576,46.6052626 C56.0195397,46.4854207 55.8986393,46.3582506 55.7761918,46.2278371 C55.6055822,46.0461675 55.429273,45.8512259 55.2493947,45.6483997 C55.1204333,45.5029229 54.9901827,45.3542841 54.8565937,45.1975844 C54.6680031,44.9762887 54.4728172,44.7367676 54.2756907,44.4924426 C54.1393333,44.32338 54.0036273,44.1558646 53.863443,43.9754842 C53.80722,43.9030715 53.7475094,43.8191916 53.6907164,43.7449876 C55.4063387,43.3926948 57.0942226,42.9801215 58.7314203,42.5130486 C58.8051358,43.0501051 58.8661492,43.5396373 58.9183825,43.9938723 C58.9211509,44.017553 58.9244892,44.0437443 58.9271626,44.0671807 C58.9760575,44.4968394 59.0146251,44.8854878 59.0466789,45.2459908 C59.0502615,45.286024 59.0544956,45.3288935 59.0578204,45.3681126 C59.08735,45.7119373 59.1092394,46.0228125 59.1255105,46.3073201 C59.1275461,46.3438522 59.1299888,46.3816056 59.1318615,46.4171606 C59.1464228,46.6918295 59.155298,46.9390044 59.159437,47.1615215 C59.160007,47.1923539 59.1605769,47.2228606 59.160984,47.2527295 C59.1639153,47.4677556 59.1627754,47.660336 59.15789,47.8294799 L59.15789,47.8294663 Z M52.5969941,42.2519503 C51.3348605,40.444143 49.7697498,37.9015014 48.1800763,34.5861905 C50.4191708,33.9251395 52.58113,33.0195328 54.609826,31.854144 C57.8303597,34.8951116 61.0681281,37.288626 63.822634,39.0347549 C62.3031612,39.617205 60.7578228,40.1681713 59.1792094,40.645015 C57.0662264,41.282711 54.8508126,41.8149634 52.5969941,42.2519503 Z M60.7907722,48.4457751 C60.7922379,48.4289204 60.792645,48.4084966 60.7940292,48.3914113 C60.7994846,48.3235583 60.8026465,48.24797 60.8067991,48.1757337 C60.8133944,48.0619171 60.8189991,47.9449928 60.8224189,47.8197905 C60.8246987,47.7350964 60.8256758,47.645924 60.82649,47.5558559 C60.82763,47.424384 60.8268157,47.2861538 60.8245359,47.1426312 C60.8229888,47.0472027 60.8213604,46.9515165 60.8182663,46.8505512 C60.813218,46.6875005 60.8050892,46.5129147 60.7958883,46.3348956 C60.7909215,46.2384901 60.787271,46.1469564 60.78092,46.0459911 C60.7631832,45.7612392 60.7414567,45.4620754 60.7129856,45.1394887 C60.7128227,45.1383488 60.7128227,45.1375345 60.7127413,45.136476 C60.6837816,44.8087596 60.6475753,44.4555848 60.6067278,44.0863695 C60.5957492,43.9866256 60.5821514,43.8779251 60.5701957,43.7750057 C60.5378163,43.4957771 60.5029941,43.2078497 60.4637751,42.9047097 C60.4465269,42.7715278 60.4276502,42.6326463 60.4090177,42.4946604 C60.3878612,42.3380422 60.3697173,42.1916833 60.3468644,42.0287954 C62.1448194,41.4656291 63.9069888,40.8212564 65.618947,40.1270252 C67.2538648,41.0727467 68.635596,41.745102 69.6107657,42.1303306 C69.6280139,42.1371702 69.640051,42.1398436 69.6571364,42.1465203 C66.9573065,44.5983611 63.9867975,46.725186 60.7907587,48.4457751 L60.7907722,48.4457751 Z M67.5918406,39.2929898 C68.4058594,38.9293928 69.2319831,38.5472447 70.0960096,38.1194587 C70.0996736,38.1303559 70.1047898,38.1441979 70.1084538,38.1550137 C70.1539289,38.2908825 70.1879368,38.4038985 70.2274001,38.5280423 C70.2728752,38.6709136 70.3237242,38.8245192 70.3618033,38.9525714 C70.3879946,39.0407667 70.4054057,39.1102481 70.4283535,39.1916853 C70.5623496,39.6664934 70.645171,40.0314747 70.6922067,40.3065507 C70.7022082,40.3656235 70.7159688,40.4342093 70.7231205,40.485384 C70.7310186,40.5419327 70.733692,40.5825224 70.7385774,40.6302095 C70.7433,40.6760917 70.7504517,40.7292206 70.752813,40.7674625 C70.7528944,40.7694167 70.752813,40.7703123 70.7528944,40.7722665 C70.1469265,40.5737558 69.0472737,40.0860013 67.5918406,39.2929898 L67.5918406,39.2929898 Z M72.2572496,39.6192406 C72.2386171,39.5316967 72.2055049,39.4234847 72.1835341,39.3313132 C72.1387104,39.1434554 72.0914304,38.9516078 72.0330226,38.7440591 C71.9899902,38.5913492 71.9393718,38.4263443 71.8888485,38.2625743 C71.8221354,38.0460825 71.7508627,37.8219369 71.6711354,37.585415 C71.6439671,37.5049549 71.6259046,37.4384047 71.5972571,37.3554883 C73.180186,36.5269218 74.7383757,35.6326194 76.2581742,34.6790949 C75.036481,36.4299463 73.6989357,38.0786112 72.2572496,39.6192406 L72.2572496,39.6192406 Z M60.0096486,27.8805506 C65.0068994,30.5330327 70.6056534,32.1703119 76.5015221,32.5426077 C74.4638696,33.8773846 72.349991,35.1060802 70.1900674,36.2073614 C68.634714,37.0000472 67.1972619,37.6687384 65.7969796,38.259738 C63.0484177,36.6030936 59.5724175,34.1565454 56.0805532,30.9255216 C57.0951047,30.2611458 58.0857312,29.5564924 59.0184385,28.766575 C59.3567264,28.4800318 59.6842799,28.1815194 60.009635,27.8805506 L60.0096486,27.8805506 Z M58.4716248,27.0209075 C58.2947456,27.1784214 58.1231589,27.3416214 57.9418965,27.4947385 C56.9610272,28.3253406 55.9149104,29.0605006 54.8390876,29.7438345 C49.5917307,24.5959772 44.5309288,17.6594471 42.1015473,8.93796267 C45.5591595,16.5263564 51.3333135,22.8286103 58.4716248,27.0208939 L58.4716248,27.0209075 Z M53.3542877,30.6322881 C51.487584,31.6626222 49.5146904,32.4813364 47.467362,33.0659035 C46.8229079,31.6264973 46.1831899,30.0608166 45.5681025,28.3636504 C43.8497933,23.6220289 42.5591072,18.5204609 41.7324949,13.2015191 C41.7260625,13.1600202 41.7220048,13.1170692 41.7155724,13.0755703 C44.427358,20.2045994 48.7939152,26.0684143 53.3542877,30.6322745 L53.3542877,30.6322881 Z M40.5641885,16.1289143 C41.3980475,20.5896922 42.5378828,24.892047 44.0021097,28.9312135 C44.593435,30.5634444 45.2085088,32.0673789 45.8285494,33.4686246 C44.1055176,33.8508541 42.3457231,34.0745111 40.5641885,34.1273957 L40.5641885,16.1289143 L40.5641885,16.1289143 Z M40.5641885,35.7936345 C42.5893018,35.7367602 44.5891195,35.473002 46.5413315,35.0150215 C48.0415205,38.1830777 49.5360912,40.7070055 50.7917109,42.5719314 C47.3789225,43.1399831 43.950365,43.4515912 40.5641885,43.4950307 L40.5641885,35.7936345 Z M37.4278603,8.93934687 C34.9941634,17.6750669 29.9205916,24.6204721 24.6638709,29.7706907 C23.6733258,29.1442176 22.706692,28.4768292 21.7968513,27.7258051 C21.5313696,27.5068706 21.282417,27.2686523 21.0250777,27.039947 C28.1783574,22.8480705 33.9650371,16.5388957 37.4278603,8.93934687 L37.4278603,8.93934687 Z M37.814256,13.0755703 C37.8078099,13.1170692 37.8037523,13.1600202 37.7973199,13.2015191 C36.9700562,18.52308 35.6800215,23.6239831 33.9623637,28.3636504 C33.3451729,30.0660955 32.7031614,31.6370688 32.0565224,33.0803019 C30.0029244,32.4987475 28.0199614,31.6888949 26.1472323,30.6600264 C30.7177557,26.0921086 35.0968522,20.219337 37.814256,13.0755703 L37.814256,13.0755703 Z M19.4847877,27.8989116 C19.894674,28.2777349 20.3056189,28.6554861 20.735929,29.0106151 C21.5913381,29.716734 22.4946786,30.3522316 23.4181035,30.9546169 C19.9367293,34.1713238 16.4733497,36.6080333 13.7329166,38.2597109 C12.3327158,37.6687113 10.8951008,37.0000201 9.33974738,36.2073342 C7.17982376,35.106053 5.06594518,33.8773575 3.02829266,32.5425805 C8.91033293,32.1711804 14.4964663,30.5403201 19.4847741,27.8989116 L19.4847877,27.8989116 Z M11.9379742,39.2929763 C10.4822968,40.086232 9.38231835,40.5739865 8.77651326,40.7724158 C8.8003568,40.3824646 8.93272442,39.6049915 9.43284169,38.1189566 C10.2972074,38.5469055 11.1236569,38.9292164 11.9379742,39.2929763 L11.9379742,39.2929763 Z M7.28324529,39.6037701 C5.84294338,38.0643757 4.49269596,36.4293764 3.27230559,34.6797327 C4.79340685,35.6334336 6.35705194,36.5169882 7.94184002,37.3461246 C7.6380486,38.2255401 7.41724139,38.9760756 7.28323172,39.6037701 L7.28324529,39.6037701 Z M8.7842485,41.1396769 C8.73185242,41.0888279 8.67709505,41.0408286 8.62494324,40.9897353 L8.63145713,40.979001 C8.67352598,41.0015418 8.71444134,41.0273259 8.75708016,41.0633694 C8.77725964,41.0897235 8.7911695,41.1138928 8.79499641,41.1253599 C8.79271655,41.1186017 8.78864537,41.1029006 8.78483203,41.0820018 C8.79670631,41.0931433 8.808757,41.0933876 8.820387,41.1058454 L8.78426207,41.1396905 L8.7842485,41.1396769 Z M19.1206342,42.4959361 C19.1021646,42.6329448 19.0834508,42.7708493 19.066284,42.9031355 C19.0266578,43.2093696 18.9913471,43.5003911 18.9587234,43.7823067 C18.9471748,43.8818063 18.9340656,43.987087 18.9233313,44.0836554 C18.8419755,44.8192226 18.7846126,45.4711541 18.7488134,46.0470225 C18.7426252,46.1465221 18.7390561,46.2366716 18.7340893,46.3317744 C18.7247391,46.5111777 18.7165154,46.6867405 18.7115485,46.8509312 C18.7085358,46.9515707 18.706826,47.0470128 18.7052789,47.1421155 C18.702999,47.2857196 18.7021848,47.4239497 18.7033247,47.5555845 C18.7040575,47.6458154 18.7051161,47.7350692 18.7073959,47.8198448 C18.7108157,47.9448164 18.7164204,48.0617271 18.7230157,48.1753809 C18.7272497,48.2477936 18.7303438,48.3234497 18.7357856,48.3914655 C18.7371698,48.4085509 18.7375769,48.4288932 18.7390426,48.4457344 C15.5404796,46.7238425 12.5606883,44.6050785 9.85914847,42.1512022 C9.88111927,42.1426527 9.89673903,42.1390836 9.91903553,42.1302899 C10.8942052,41.7450477 12.2759364,41.072706 13.9108543,40.1269845 C15.6228124,40.8212292 17.3849818,41.4655884 19.1829368,42.0287547 C19.159989,42.1921175 19.1417636,42.3388971 19.1206206,42.4959225 L19.1206342,42.4959361 Z M15.707208,39.0347413 C18.4541414,37.2933214 21.6818404,34.9076237 24.8936619,31.878449 C26.9281389,33.0420464 29.0977519,33.9433513 31.3427767,34.6013082 C29.755451,37.909223 28.1932715,40.446735 26.9334178,42.2519367 C24.6785407,41.8149499 22.4630455,41.2826974 20.3506326,40.6450014 C18.7720191,40.1681577 17.2266808,39.6171914 15.707208,39.0347413 L15.707208,39.0347413 Z M20.4888627,48.904122 C20.4743829,48.8493647 20.4594145,48.7828145 20.4450161,48.6986089 C20.4437947,48.6914436 20.4427362,48.682582 20.4415149,48.6752539 C20.4115781,48.4926886 20.3853733,48.2370457 20.373499,47.8839523 C20.3730919,47.8713452 20.3724405,47.860353 20.3720334,47.8475017 C20.3668223,47.6751822 20.3658452,47.4757758 20.3688579,47.2551179 C20.3691836,47.2281938 20.3693464,47.2024775 20.3699164,47.1748207 C20.3739876,46.9529549 20.3831749,46.7035002 20.3975733,46.4294012 C20.3996089,46.3906708 20.4018073,46.351221 20.4040872,46.311432 C20.4201955,46.0293536 20.4421663,45.7198625 20.4712073,45.3793762 C20.4749528,45.3351225 20.4795125,45.2879239 20.4834887,45.2426931 C20.5152168,44.8860171 20.5535402,44.5014263 20.6017022,44.0773044 C20.6053663,44.0450878 20.6097631,44.0095328 20.6135765,43.9768277 C20.6654026,43.526908 20.7256018,43.0438761 20.7984216,42.5130079 C22.4353751,42.9800943 24.1230147,43.3925862 25.8390441,43.744784 C25.7767279,43.8261397 25.711304,43.9179177 25.6497206,43.997075 C25.5096178,44.1769669 25.3735861,44.3452966 25.2373101,44.513952 C25.0404143,44.757707 24.8463819,44.9942969 24.6581984,45.2150227 C24.5104553,45.3880749 24.3652228,45.5550204 24.2230843,45.7143257 C24.0707001,45.8854238 23.9224548,46.0475789 23.777073,46.2033015 C23.6088247,46.3829491 23.441635,46.5605475 23.2829811,46.7204227 C23.2016253,46.8026741 23.1246529,46.8773667 23.0460656,46.9544884 C21.8282808,48.1446978 20.9248589,48.7468388 20.4924453,48.9179369 C20.491224,48.9136215 20.490084,48.9086682 20.4888627,48.9041085 L20.4888627,48.904122 Z M38.8979633,53.760415 C32.9844392,53.6397317 27.2368836,52.3343215 21.9589385,50.016314 C21.9825378,50.0015899 22.0079148,49.9810847 22.0316769,49.9658721 C22.1987038,49.8589629 22.3694762,49.7400981 22.5435056,49.6109874 C22.5983444,49.5703027 22.6531018,49.5290617 22.7084969,49.4863414 C22.8944006,49.3429816 23.0826655,49.1904345 23.2744316,49.0253618 C23.2942854,49.0082764 23.3136506,48.993308 23.3335859,48.9759784 C23.5476485,48.789749 23.7650359,48.5887142 23.9840518,48.3788042 C24.0351451,48.3298279 24.0863198,48.2790603 24.1376574,48.228944 C24.3182685,48.0525534 24.499626,47.869581 24.6818655,47.6796876 C24.7283177,47.6312813 24.7743763,47.5845849 24.8209099,47.5353507 C25.0437527,47.299738 25.2669212,47.0564715 25.4899268,46.8044247 C25.519375,46.7711496 25.5487554,46.7364089 25.5782036,46.7028081 C25.7737966,46.4800467 25.9685618,46.2517485 26.1625264,46.0189856 C26.2147596,45.9563437 26.2665858,45.894014 26.3186562,45.8307207 C26.534008,45.5689032 26.7479078,45.3035979 26.9588763,45.0330681 C26.9624589,45.0285083 26.9660416,45.0242065 26.9695292,45.0196467 C27.1878937,44.7392782 27.402282,44.4546892 27.6136577,44.1684717 C27.6318016,44.1438953 27.6509225,44.1199839 27.6690664,44.0953261 C31.4098019,44.7623075 35.1799178,45.1231361 38.8979633,45.1734966 L38.8979633,53.760415 L38.8979633,53.760415 Z M38.8979633,43.4934972 C35.5336762,43.4467872 32.1281344,43.1362376 28.7385382,42.5719314 C29.9918779,40.7097739 31.4838431,38.1905687 32.9819151,35.0294334 C34.9160782,35.4792716 36.8957029,35.7378322 38.8979633,35.7942181 L38.8979633,43.4934972 L38.8979633,43.4934972 Z M38.8979633,34.1279657 C37.1392137,34.0755696 35.4000736,33.8564723 33.6957693,33.4820595 C34.3179269,32.0771497 34.9350363,30.5684112 35.5283836,28.9312271 C36.9508673,25.0073428 38.0697225,20.8351572 38.8979633,16.5079683 L38.8979633,34.1279657 Z M39.4572212,13.3596844 C39.4573026,13.3594401 39.4573026,13.3592773 39.4573841,13.359033 L39.7310759,13.3596844 L39.4572212,13.3596844 L39.4572212,13.3596844 Z" id="Shape"></path>
                <g id="Group" transform="translate(93.4993, 9.4636)">
                    <polygon id="Path" points="0 22.0548826 0 1.47766177 4.36339529 1.47766177 4.36339529 22.0548826"></polygon>
                    <path d="M23.7299966,22.0549098 L19.4368427,22.0549098 L19.4368427,12.864249 C19.4368427,11.7291634 19.2354008,10.8776898 18.8318654,10.3098281 C18.4283301,9.74196636 17.7855723,9.45835441 16.9036191,9.45835441 C15.7022818,9.45835441 14.8349035,9.85924347 14.300154,10.6616865 C13.7647532,11.4641296 13.497711,12.7940211 13.497711,14.6520261 L13.497711,22.0549098 L9.20455708,22.0549098 L9.20455708,6.31950209 L12.4845572,6.31950209 L13.0610362,8.33256469 L13.3002452,8.33256469 C13.779328,7.57252975 14.437977,6.99736706 15.2781871,6.60840657 C16.1177321,6.21878111 17.0725866,6.02397516 18.1420583,6.02397516 C19.971565,6.02397516 21.3604344,6.51896275 22.3079879,7.50892435 C23.2555413,8.49888595 23.7299966,9.92751715 23.7299966,11.7947908 L23.7299966,22.0549098 L23.7299966,22.0549098 Z" id="Path"></path>
                    <path d="M36.8473508,9.54249213 L33.1320059,9.54249213 L33.1320059,22.0548691 L28.838852,22.0548691 L28.838852,9.54249213 L26.4745959,9.54249213 L26.4745959,7.4737765 L28.838852,6.31947495 L28.838852,5.1651734 C28.838852,3.37343369 29.2801679,2.06473944 30.1621211,1.23845283 C31.0440743,0.412817611 32.4561358,0 34.398292,0 C35.8805949,0 37.1992093,0.220657934 38.3535109,0.661960231 L37.2555409,3.81407103 C36.3921387,3.54238764 35.5950017,3.40589456 34.8628,3.40589456 C34.2531816,3.40589456 33.8118793,3.58679064 33.5401959,3.94791784 C33.2678612,4.30904504 33.1320195,4.77155819 33.1320195,5.33412735 L33.1320195,6.31944781 L36.8473644,6.31944781 L36.8473644,9.54246499 L36.8473508,9.54249213 Z" id="Path"></path>
                    <path d="M53.6098493,14.1590198 C53.6098493,16.7207417 52.933952,18.7238571 51.5828632,20.1690444 C50.2317744,21.6142317 48.3505638,22.3364997 45.9392719,22.3364997 C44.4284843,22.3364997 43.0959465,22.0058521 41.941645,21.3438782 C40.7880084,20.682583 39.901414,19.7323697 39.2818619,18.4939168 C38.6623098,17.255464 38.3528595,15.8109416 38.3528595,14.1590062 C38.3528595,11.5880156 39.023437,9.58952782 40.3659221,8.16355646 C41.7070772,6.73692013 43.5935804,6.02393445 46.0234368,6.02393445 C47.5342244,6.02393445 48.8667622,6.35260078 50.0203988,7.00925491 C51.1747003,7.66592261 52.0612947,8.60883494 52.6808468,9.83800548 C53.2997339,11.067841 53.6098493,12.5077358 53.6098493,14.1589927 L53.6098493,14.1590198 Z M42.730151,14.1590198 C42.730151,15.7168567 42.9859433,16.8943368 43.497487,17.6914873 C44.0083657,18.4892893 44.8412884,18.888197 45.9955899,18.888197 C47.1399442,18.888197 47.9635981,18.4919491 48.4651946,17.6987883 C48.9674696,16.9062925 49.2186071,15.7261525 49.2186071,14.1590334 C49.2186071,12.6018615 48.9648233,11.43365 48.4585721,10.6543991 C47.951656,9.87581317 47.1213932,9.48618771 45.9670917,9.48618771 C44.8220724,9.48618771 43.9971021,9.8731669 43.490186,10.6477767 C42.9832699,11.4217215 42.730151,12.5919278 42.730151,14.1590334 L42.730151,14.1590198 Z" id="Shape"></path>
                    <path d="M63.7857898,18.9160167 C64.5358775,18.9160167 65.4370602,18.7523417 66.487981,18.423689 L66.487981,21.6188729 C65.4184956,22.0972907 64.1045089,22.3364997 62.547337,22.3364997 C60.8298148,22.3364997 59.5794335,21.9024848 58.7962064,21.0344415 C58.0123143,20.1663981 57.6207075,18.8650048 57.6207075,17.1289182 L57.6207075,9.5425057 L55.5659018,9.5425057 L55.5659018,7.72690888 L57.9308229,6.29165522 L59.1692757,2.96991194 L61.913875,2.96991194 L61.913875,6.31948852 L66.3190134,6.31948852 L66.3190134,9.5425057 L61.913875,9.5425057 L61.913875,17.1289182 C61.913875,17.7385366 62.0848374,18.1891212 62.4274136,18.4800205 C62.7699898,18.7709199 63.2225692,18.9160303 63.7858034,18.9160303 L63.7857898,18.9160167 Z" id="Path"></path>
                    <path d="M76.7898431,22.3364997 C74.2559545,22.3364997 72.2760313,21.6374103 70.8500599,20.2392722 C69.4240885,18.8411342 68.7111029,16.8611974 68.7111029,14.300154 C68.7111029,11.6635631 69.3710818,9.6246621 70.6883798,8.1847673 C72.0083376,6.74422112 73.829227,6.02393445 76.1563811,6.02393445 C78.3801544,6.02393445 80.1115999,6.65741 81.3520341,7.92434752 C82.5898219,9.19063364 83.210039,10.9406302 83.210039,13.1736722 L83.210039,15.2569762 L73.0605883,15.2569762 C73.1083025,16.476878 73.4687647,17.4290727 74.1446484,18.114225 C74.8205321,18.7987125 75.7667556,19.1413022 76.9886388,19.1413022 C77.9348759,19.1413022 78.830739,19.0432275 79.6769201,18.8457753 C80.5197764,18.6489745 81.4023946,18.3348966 82.3221283,17.902863 L82.3221283,21.2246063 C81.5720406,21.5996569 80.7689326,21.8786141 79.9154641,22.06217 C79.0619955,22.245061 78.0196921,22.3364997 76.7898566,22.3364997 L76.7898431,22.3364997 Z M76.1855307,9.07798411 C75.2764092,9.07798411 74.5607637,9.36688858 74.0465737,9.94403257 C73.5297239,10.5205116 73.2355133,11.3395244 73.1586494,12.3997274 L79.1839138,12.3997274 C79.1653628,11.3395244 78.886392,10.5205116 78.3536374,9.94403257 C77.8182366,9.36688858 77.0946523,9.07798411 76.1855172,9.07798411 L76.1855307,9.07798411 Z" id="Shape"></path>
                    <polygon id="Path" points="90.9919224 22.0548826 86.6994199 22.0548826 86.6994199 0.15505766 90.9919224 0.15505766"></polygon>
                    <path d="M102.61837,22.3364997 C100.084481,22.3364997 98.1045581,21.6374103 96.6785867,20.2392722 C95.2526154,18.8411342 94.5396297,16.8611974 94.5396297,14.300154 C94.5396297,11.6635631 95.1982787,9.6246621 96.5169066,8.1847673 C97.8355346,6.74422112 99.6577538,6.02393445 101.984908,6.02393445 C104.208681,6.02393445 105.939462,6.65741 107.17858,7.92434752 C108.417697,9.19063364 109.036585,10.9406302 109.036585,13.1736722 L109.036585,15.2569762 L98.8891151,15.2569762 C98.9354994,16.476878 99.2972916,17.4290727 99.9718453,18.114225 C100.647729,18.7987125 101.595282,19.1413022 102.815836,19.1413022 C103.763389,19.1413022 104.659266,19.0432275 105.503452,18.8457753 C106.347638,18.6489745 107.230256,18.3348966 108.14999,17.902863 L108.14999,21.2246063 C107.398573,21.5996569 106.596794,21.8786141 105.743326,22.06217 C104.888541,22.245061 103.848219,22.3364997 102.618383,22.3364997 L102.61837,22.3364997 Z M102.012728,9.07798411 C101.103606,9.07798411 100.389291,9.36688858 99.8737706,9.94403257 C99.3582507,10.5205116 99.0627102,11.3395244 98.9871763,12.3997274 L105.011776,12.3997274 C104.991895,11.3395244 104.714919,10.5205116 104.180848,9.94403257 C103.645447,9.36688858 102.923179,9.07798411 102.012728,9.07798411 Z" id="Shape"></path>
                    <path d="M121.224936,9.54249213 L117.508926,9.54249213 L117.508926,22.0548691 L113.216424,22.0548691 L113.216424,9.54249213 L110.850851,9.54249213 L110.850851,7.4737765 L113.216424,6.31947495 L113.216424,5.1651734 C113.216424,3.37343369 113.65641,2.06473944 114.539028,1.23845283 C115.420316,0.412817611 116.833043,0 118.775864,0 C120.257502,0 121.57613,0.220657934 122.730418,0.661960231 L121.633113,3.81407103 C120.769046,3.54238764 119.971244,3.40589456 119.239707,3.40589456 C118.630089,3.40589456 118.188786,3.58679064 117.917103,3.94791784 C117.644103,4.30904504 117.508926,4.77155819 117.508926,5.33412735 L117.508926,6.31944781 L121.224936,6.31944781 L121.224936,9.54246499 L121.224936,9.54249213 Z" id="Path"></path>
                    <path d="M137.986756,14.1590198 C137.986756,16.7207417 137.312189,18.7238571 135.960435,20.1690444 C134.609998,21.6142317 132.728136,22.3364997 130.316179,22.3364997 C128.805391,22.3364997 127.473505,22.0058521 126.319217,21.3438782 C125.164915,20.682583 124.278321,19.7323697 123.659434,18.4939168 C123.040547,17.255464 122.730431,15.8109416 122.730431,14.1590062 C122.730431,11.5880156 123.401009,9.58952782 124.743494,8.16355646 C126.084649,6.73692013 127.970487,6.02393445 130.401009,6.02393445 C131.911796,6.02393445 133.243683,6.35260078 134.397971,7.00925491 C135.552259,7.66590903 136.438867,8.60883494 137.057754,9.83800548 C137.677971,11.067841 137.986756,12.5077358 137.986756,14.1589927 L137.986756,14.1590198 Z M127.107737,14.1590198 C127.107737,15.7168567 127.363515,16.8943368 127.875059,17.6914873 C128.386603,18.4892893 129.21886,18.888197 130.373162,18.888197 C131.518181,18.888197 132.34117,18.4919491 132.843431,17.6987883 C133.344377,16.9062925 133.596179,15.7261525 133.596179,14.1590334 C133.596179,12.6018615 133.34306,11.43365 132.835479,10.6543991 C132.329228,9.87581317 131.4983,9.48618771 130.345329,9.48618771 C129.200309,9.48618771 128.374674,9.8731669 127.867106,10.6477767 C127.360855,11.4217215 127.107737,12.5919278 127.107737,14.1590334 L127.107737,14.1590198 Z" id="Shape"></path>
                    <path d="M156.057908,22.0549098 L151.765406,22.0549098 L151.765406,12.864249 C151.765406,11.7291634 151.563964,10.8776898 151.159763,10.3098281 C150.756879,9.74195279 150.114135,9.45835441 149.232847,9.45835441 C148.030845,9.45835441 147.162801,9.85924347 146.628717,10.6616865 C146.093316,11.4641296 145.825609,12.7940211 145.825609,14.6520261 L145.825609,22.0549098 L141.533106,22.0549098 L141.533106,6.31950209 L144.813107,6.31950209 L145.389586,8.33256469 L145.629459,8.33256469 C146.107877,7.57252975 146.766526,6.99736706 147.606736,6.60840657 C148.445617,6.21878111 149.401136,6.02397516 150.470608,6.02397516 C152.300779,6.02397516 153.688319,6.51896275 154.637202,7.50892435 C155.584756,8.49888595 156.057908,9.92751715 156.057908,11.7947908 L156.057908,22.0549098 L156.057908,22.0549098 Z" id="Path"></path>
                </g>
                <g id="Group" transform="translate(92.8599, 38.3057)">
                    <path d="M3.4721598,10.4430099 C2.3986983,10.4430099 1.55186581,10.1163385 0.931648738,9.46231703 C0.310101749,8.80830917 0,7.90050397 0,6.73891501 C0,5.56805733 0.287574556,4.6383899 0.865397075,3.94926133 C1.44055976,3.26013276 2.21583449,2.91556169 3.18724508,2.91556169 C4.09769654,2.91556169 4.81730467,3.21506481 5.34741297,3.81341964 C5.87752126,4.41177448 6.14256863,5.20162403 6.14256863,6.18231691 L6.14256863,6.8780815 L1.1397403,6.8780815 C1.16226749,7.73088506 1.37695436,8.37760551 1.7851444,8.81957277 C2.19465078,9.26154002 2.76981346,9.48219796 3.51194879,9.48219796 C4.29384597,9.48219796 5.06647444,9.31852297 5.83113696,8.99185152 L5.83113696,9.9725444 C5.44284142,10.1401956 5.07441324,10.2607839 4.7271959,10.3336716 C4.38130848,10.4065593 3.96251981,10.4430099 3.47218694,10.4430099 L3.4721598,10.4430099 Z M3.17397303,3.83662536 C2.59085798,3.83662536 2.12569857,4.02680373 1.77981115,4.40648194 C1.43259382,4.78617372 1.22850558,5.31229226 1.16621654,5.98353478 L4.96306647,5.98353478 C4.96306647,5.28976507 4.80800881,4.75900538 4.49922341,4.38991224 C4.19043801,4.0208191 3.7478058,3.83662536 3.17397303,3.83662536 L3.17397303,3.83662536 Z" id="Shape"></path>
                    <path d="M7.92501247,1.08009752 C7.92501247,0.828295058 7.98730152,0.644087753 8.1105497,0.526810639 C8.23379788,0.409533526 8.38885554,0.351220663 8.57439276,0.351220663 C8.7506477,0.351220663 8.90305909,0.410863444 9.0315998,0.530135436 C9.16014051,0.649407427 9.22375948,0.832949774 9.22375948,1.08011109 C9.22375948,1.3272724 9.16014051,1.51214466 9.0315998,1.63339796 C8.90305909,1.75465126 8.7506477,1.81562396 8.57439276,1.81562396 C8.38885554,1.81562396 8.23379788,1.75466483 8.1105497,1.63339796 C7.98730152,1.51213109 7.92501247,1.32725883 7.92501247,1.08011109 L7.92501247,1.08009752 Z M9.11774596,10.310493 L8.01778109,10.310493 L8.01778109,3.04810573 L9.11774596,3.04810573 L9.11774596,10.310493 Z" id="Shape"></path>
                    <path d="M16.4198951,10.310493 L16.4198951,5.6124739 C16.4198951,5.02074152 16.2847184,4.57877426 16.0156948,4.28722352 C15.7466713,3.99567278 15.3239064,3.84988384 14.7500736,3.84988384 C13.9907037,3.84988384 13.434092,4.05530199 13.0802522,4.46612472 C12.7264124,4.87694746 12.5501575,5.554826 12.5501575,6.5003846 L12.5501575,10.310493 L11.4501926,10.310493 L11.4501926,3.04810573 L12.3447393,3.04810573 L12.5236541,4.04204352 L12.5766609,4.04204352 C12.8019599,3.68422754 13.1173678,3.40725162 13.5242143,3.2104508 C13.9310609,3.01364998 14.3829754,2.91557526 14.8826041,2.91557526 C15.7572699,2.91557526 16.4159189,3.12628595 16.8572348,3.54838585 C17.2985506,3.97048575 17.51986,4.6450395 17.51986,5.57271205 L17.51986,10.310493 L16.4198951,10.310493 Z" id="Path"></path>
                    <path d="M28.9369132,7.73286637 C28.9369132,8.58566993 28.6281278,9.25027643 28.0092406,9.72737796 C27.3903535,10.2044795 26.5514598,10.4430099 25.4912568,10.4430099 C24.3422613,10.4430099 23.4596431,10.2952397 22.840756,9.99904778 L22.840756,8.91234138 C23.2383338,9.07999255 23.6716837,9.21250945 24.139503,9.30991921 C24.6073222,9.40732896 25.0711517,9.45569458 25.5310186,9.45569458 C26.2824362,9.45569458 26.8470003,9.31323043 27.2273434,9.02830214 C27.6076866,8.74337385 27.7972,8.34712595 27.7972,7.83889346 C27.7972,7.50293972 27.7296184,7.22794511 27.595758,7.01392319 C27.4605813,6.79990128 27.2352958,6.60177054 26.9198744,6.42087446 C26.6031366,6.23997838 26.1234024,6.03456023 25.4779983,5.80463358 C24.5768291,5.48193831 23.9327549,5.10026523 23.5457757,4.6582844 C23.1601265,4.21631714 22.9666369,3.63982454 22.9666369,2.92883374 C22.9666369,2.18205727 23.247589,1.58834358 23.8081768,1.14636275 C24.3687647,0.704381922 25.1109,0.483737559 26.0345964,0.483737559 C26.9980546,0.483737559 27.883319,0.660657453 28.6917332,1.01383228 L28.3405396,1.99452516 C27.5414078,1.65857142 26.7634868,1.49093382 26.008093,1.49093382 C25.411733,1.49093382 24.9452437,1.61882314 24.6099549,1.87525317 C24.2746662,2.1316832 24.1063636,2.48685291 24.1063636,2.94207864 C24.1063636,3.27803238 24.1686526,3.55302699 24.2919008,3.76704891 C24.415149,3.98107082 24.6245433,4.17787164 24.9187403,4.35678641 C25.211621,4.53570118 25.6608892,4.73315339 26.2665179,4.94983514 C27.2829829,5.31229226 27.9813937,5.7005878 28.3643968,6.11606525 C28.7460698,6.53152912 28.9369132,7.07024118 28.9369132,7.73287994 L28.9369132,7.73286637 Z" id="Path"></path>
                    <path d="M30.6597414,1.08009752 C30.6597414,0.828295058 30.7220304,0.644087753 30.8452786,0.526810639 C30.9685268,0.409533526 31.1235844,0.351220663 31.3091217,0.351220663 C31.4853766,0.351220663 31.637788,0.410863444 31.7663287,0.530135436 C31.8948694,0.649407427 31.9584884,0.832949774 31.9584884,1.08011109 C31.9584884,1.3272724 31.8948694,1.51214466 31.7663287,1.63339796 C31.637788,1.75465126 31.4853766,1.81562396 31.3091217,1.81562396 C31.1235844,1.81562396 30.9685268,1.75466483 30.8452786,1.63339796 C30.7220304,1.51213109 30.6597414,1.32725883 30.6597414,1.08011109 L30.6597414,1.08009752 Z M31.8524749,10.310493 L30.75251,10.310493 L30.75251,3.04810573 L31.8524749,3.04810573 L31.8524749,10.310493 Z" id="Shape"></path>
                    <polygon id="Path" points="35.2848864 10.310493 34.1849215 10.310493 34.1849215 1.35705977e-05 35.2848864 1.35705977e-05"></polygon>
                    <path d="M40.9967242,2.92882017 C41.9509001,2.92882017 42.6917191,3.25482666 43.2204975,3.90618825 C43.7479459,4.55754985 44.011677,5.47992987 44.011677,6.67264978 C44.011677,7.86536969 43.7452997,8.7917259 43.2125451,9.45236978 C42.6811205,10.1130137 41.9416314,10.4429963 40.9967242,10.4429963 C40.5236124,10.4429963 40.0928952,10.3555338 39.7006235,10.1812602 C39.310998,10.0069866 38.9823317,9.73862799 38.7172843,9.37617087 L38.6377742,9.37617087 L38.4058527,10.3104794 L37.617333,10.3104794 L37.617333,0 L38.7172979,0 L38.7172979,2.50472539 C38.7172979,3.06596464 38.7000632,3.56956955 38.6642911,4.015513 L38.7172979,4.015513 C39.2301715,3.29126372 39.9895415,2.9288066 40.9967378,2.9288066 L40.9967242,2.92882017 Z M40.8376904,3.8498567 C40.0862727,3.8498567 39.5455658,4.0652221 39.2142532,4.49592576 C38.8829406,4.92662942 38.7172843,5.65220861 38.7172843,6.67264978 C38.7172843,7.69309094 38.8869168,8.42331129 39.2275117,8.86263228 C39.5681066,9.30195327 40.1127761,9.52194624 40.8641937,9.52194624 C41.5400774,9.52194624 42.0436687,9.27544989 42.3749813,8.78312214 C42.7062939,8.29079439 42.8719502,7.58243628 42.8719502,6.65940488 C42.8719502,5.7138327 42.7062939,5.00946435 42.3749813,4.54562129 C42.0436687,4.08177823 41.5307951,3.8498567 40.8376904,3.8498567 L40.8376904,3.8498567 Z" id="Shape"></path>
                    <path d="M49.0012604,10.4430099 C47.9277989,10.4430099 47.0809664,10.1163385 46.4607493,9.46231703 C45.8392023,8.80830917 45.5291006,7.90050397 45.5291006,6.73891501 C45.5291006,5.56805733 45.8166751,4.6383899 46.3944977,3.94926133 C46.9696603,3.26013276 47.7449351,2.91556169 48.7163457,2.91556169 C49.6267971,2.91556169 50.3464053,3.21506481 50.8765136,3.81341964 C51.4066219,4.41177448 51.6716692,5.20162403 51.6716692,6.18231691 L51.6716692,6.8780815 L46.6688409,6.8780815 C46.6913681,7.73088506 46.9060549,8.37760551 47.314245,8.81957277 C47.7237514,9.26154002 48.2989141,9.48219796 49.0410494,9.48219796 C49.8229466,9.48219796 50.595575,9.31852297 51.3602375,8.99185152 L51.3602375,9.9725444 C50.971942,10.1401956 50.6035138,10.2607839 50.2562965,10.3336716 C49.9104091,10.4065593 49.4916204,10.4430099 49.0012875,10.4430099 L49.0012604,10.4430099 Z M48.7030736,3.83662536 C48.1199586,3.83662536 47.6547992,4.02680373 47.3089117,4.40648194 C46.9616944,4.78617372 46.7576062,5.31229226 46.6953171,5.98353478 L50.4921671,5.98353478 C50.4921671,5.28976507 50.3371094,4.75900538 50.028324,4.38991224 C49.7195386,4.0208191 49.2769064,3.83662536 48.7030736,3.83662536 L48.7030736,3.83662536 Z" id="Shape"></path>
                    <path d="M56.8600076,2.91557526 C57.1820379,2.91557526 57.4722723,2.94207864 57.728051,2.9950854 L57.5756531,4.01552657 C57.2748201,3.94926133 57.0097728,3.9161355 56.7804975,3.9161355 C56.1934063,3.9161355 55.6911448,4.15467948 55.2723562,4.63176745 C54.8562273,5.10885542 54.646833,5.70323407 54.646833,6.41423844 L54.646833,10.3104794 L53.5468681,10.3104794 L53.5468681,3.04809216 L54.4546733,3.04809216 L54.5805677,4.39322347 L54.6335745,4.39322347 C54.902598,3.92077665 55.2272882,3.55632465 55.6076314,3.29989462 C55.9879745,3.04346459 56.4054333,2.91557526 56.8599941,2.91557526 L56.8600076,2.91557526 Z" id="Path"></path>
                    <path d="M64.0561432,10.310493 L64.0561432,5.6124739 C64.0561432,5.02074152 63.9209665,4.57877426 63.651943,4.28722352 C63.3829194,3.99567278 62.9601546,3.84988384 62.3863218,3.84988384 C61.6269518,3.84988384 61.0703401,4.05530199 60.7165003,4.46612472 C60.3626606,4.87694746 60.1864056,5.554826 60.1864056,6.5003846 L60.1864056,10.310493 L59.0864408,10.310493 L59.0864408,3.04810573 L59.9809875,3.04810573 L60.1599022,4.04204352 L60.212909,4.04204352 C60.4382081,3.68422754 60.7536159,3.40725162 61.1604625,3.2104508 C61.567309,3.01364998 62.0192235,2.91557526 62.5188523,2.91557526 C63.3935181,2.91557526 64.0521671,3.12628595 64.4934829,3.54838585 C64.9347988,3.97048575 65.1561081,4.6450395 65.1561081,5.57271205 L65.1561081,10.310493 L64.0561432,10.310493 Z" id="Path"></path>
                    <path d="M70.4836266,10.4430099 C69.4101651,10.4430099 68.5633326,10.1163385 67.9431155,9.46231703 C67.3215685,8.80830917 67.0114668,7.90050397 67.0114668,6.73891501 C67.0114668,5.56805733 67.2990414,4.6383899 67.8768639,3.94926133 C68.4520266,3.26013276 69.2273013,2.91556169 70.1987119,2.91556169 C71.1091633,2.91556169 71.8287715,3.21506481 72.3588798,3.81341964 C72.8889881,4.41177448 73.1540354,5.20162403 73.1540354,6.18231691 L73.1540354,6.8780815 L68.1512071,6.8780815 C68.1737343,7.73088506 68.3884212,8.37760551 68.7966112,8.81957277 C69.2061176,9.26154002 69.7812803,9.48219796 70.5234156,9.48219796 C71.3053128,9.48219796 72.0779412,9.31852297 72.8426038,8.99185152 L72.8426038,9.9725444 C72.4543082,10.1401956 72.08588,10.2607839 71.7386627,10.3336716 C71.3927753,10.4065593 70.9739866,10.4430099 70.4836537,10.4430099 L70.4836266,10.4430099 Z M70.1854398,3.83662536 C69.6023248,3.83662536 69.1371654,4.02680373 68.7912779,4.40648194 C68.4440606,4.78617372 68.2399724,5.31229226 68.1776833,5.98353478 L71.9745333,5.98353478 C71.9745333,5.28976507 71.8194756,4.75900538 71.5106902,4.38991224 C71.2019048,4.0208191 70.7592726,3.83662536 70.1854398,3.83662536 L70.1854398,3.83662536 Z" id="Shape"></path>
                    <path d="M77.3749394,9.53521829 C77.5697454,9.53521829 77.7566125,9.52064346 77.9381736,9.49214521 C78.1197346,9.46364695 78.2628637,9.43383234 78.3688772,9.40268782 L78.3688772,10.2442278 C78.2496052,10.3018757 78.0746666,10.348925 77.8414288,10.3866919 C77.6108371,10.4244589 77.4014428,10.4430099 77.2159056,10.4430099 C75.8111315,10.4430099 75.108758,9.70285589 75.108758,8.22321281 L75.108758,3.9028906 L74.0684359,3.9028906 L74.0684359,3.37279587 L75.108758,2.91558883 L75.5726011,1.36503938 L76.2087229,1.36503938 L76.2087229,3.04810573 L78.3158705,3.04810573 L78.3158705,3.9028906 L76.2087229,3.9028906 L76.2087229,8.1768285 C76.2087229,8.61416819 76.3120901,8.95010835 76.5201546,9.18402476 C76.728219,9.41794117 77.0131473,9.53521829 77.3749394,9.53521829 L77.3749394,9.53521829 Z" id="Path"></path>
                    <polygon id="Path" points="84.464383 10.310493 79.1971587 10.310493 79.1971587 9.56172166 83.159 3.9028906 79.4423251 3.9028906 79.4423251 3.04810573 84.3649784 3.04810573 84.3649784 3.9028906 80.4554789 9.45570815 84.4643694 9.45570815 84.4643694 10.310493"></polygon>
                    <path d="M92.421205,10.4430099 C91.3477435,10.4430099 90.500911,10.1163385 89.8806939,9.46231703 C89.2591469,8.80830917 88.9490452,7.90050397 88.9490452,6.73891501 C88.9490452,5.56805733 89.2366197,4.6383899 89.8144422,3.94926133 C90.3896049,3.26013276 91.1648797,2.91556169 92.1362902,2.91556169 C93.0467417,2.91556169 93.7663498,3.21506481 94.2964581,3.81341964 C94.8265664,4.41177448 95.0916138,5.20162403 95.0916138,6.18231691 L95.0916138,6.8780815 L90.0887855,6.8780815 C90.1113127,7.73088506 90.3259995,8.37760551 90.7341896,8.81957277 C91.1436959,9.26154002 91.7188586,9.48219796 92.460994,9.48219796 C93.2428911,9.48219796 94.0155196,9.31852297 94.7801821,8.99185152 L94.7801821,9.9725444 C94.3918866,10.1401956 94.0234584,10.2607839 93.6762411,10.3336716 C93.3303536,10.4065593 92.911565,10.4430099 92.4212321,10.4430099 L92.421205,10.4430099 Z M92.1230182,3.83662536 C91.5399031,3.83662536 91.0747437,4.02680373 90.7288563,4.40648194 C90.381639,4.78617372 90.1775507,5.31229226 90.1152617,5.98353478 L93.9121116,5.98353478 C93.9121116,5.28976507 93.757054,4.75900538 93.4482686,4.38991224 C93.1394832,4.0208191 92.696851,3.83662536 92.1230182,3.83662536 L92.1230182,3.83662536 Z" id="Shape"></path>
                    <path d="M96.4685274,9.60810597 C96.4685274,9.31191408 96.536109,9.08794492 96.6699694,8.93553353 C96.8051461,8.78313571 96.9986357,8.70692323 97.2504246,8.70692323 C97.5062033,8.70692323 97.7063153,8.78312214 97.8494444,8.93553353 C97.9939034,9.08793135 98.0654612,9.31190051 98.0654612,9.60810597 C98.0654612,9.89502914 97.9925735,10.1163385 97.8467981,10.2707312 C97.7010228,10.4251239 97.5022271,10.5026527 97.2504382,10.5026527 C97.0251391,10.5026527 96.8382855,10.4330762 96.6911803,10.2939233 C96.542745,10.1547704 96.4685274,9.92616009 96.4685274,9.60810597 L96.4685274,9.60810597 Z" id="Path"></path>
                    <path d="M105.598202,0.622876907 L106.810803,0.622876907 L103.318762,10.3104794 L102.205552,10.3104794 L98.7333925,0.622876907 L99.926126,0.622876907 L102.152546,6.89132641 C102.408324,7.6115995 102.612412,8.31134028 102.762164,8.99185152 C102.921198,8.27621957 103.129262,7.56256893 103.385027,6.85156455 L105.598202,0.622876907 L105.598202,0.622876907 Z" id="Path"></path>
                    <path d="M107.478748,9.60810597 C107.478748,9.31191408 107.546329,9.08794492 107.68019,8.93553353 C107.815366,8.78313571 108.008856,8.70692323 108.260645,8.70692323 C108.516423,8.70692323 108.716536,8.78312214 108.859665,8.93553353 C109.004124,9.08793135 109.075681,9.31190051 109.075681,9.60810597 C109.075681,9.89502914 109.002794,10.1163385 108.857018,10.2707312 C108.711243,10.4251239 108.512447,10.5026527 108.260658,10.5026527 C108.035359,10.5026527 107.848506,10.4330762 107.7014,10.2939233 C107.552965,10.1547704 107.478748,9.92616009 107.478748,9.60810597 L107.478748,9.60810597 Z" id="Path"></path>
                    <polygon id="Path" points="112.129053 7.17626827 112.129053 6.16907201 115.382549 6.16907201 115.382549 7.17626827"></polygon>
                    <path d="M125.716899,3.44566999 C125.716899,4.42636287 125.382927,5.18042675 124.712349,5.70854017 C124.044418,6.23665359 123.086266,6.5003846 121.840526,6.5003846 L120.700813,6.5003846 L120.700813,10.310493 L119.574344,10.310493 L119.574344,0.622890477 L122.085706,0.622890477 C124.506945,0.622890477 125.716899,1.5638215 125.716899,3.44568356 L125.716899,3.44566999 Z M120.700799,5.53295019 L121.714618,5.53295019 C122.712532,5.53295019 123.4348,5.37193504 123.881408,5.04922621 C124.328017,4.72651737 124.550656,4.20968112 124.550656,3.49867675 C124.550656,2.85791379 124.341261,2.38082582 123.921156,2.06739928 C123.501051,1.75397273 122.847695,1.59693377 121.959784,1.59693377 L120.700799,1.59693377 L120.700799,5.53295019 L120.700799,5.53295019 Z" id="Shape"></path>
                    <path d="M130.892006,2.91557526 C131.214037,2.91557526 131.504271,2.94207864 131.76005,2.9950854 L131.607652,4.01552657 C131.306819,3.94926133 131.041772,3.9161355 130.812496,3.9161355 C130.225405,3.9161355 129.723144,4.15467948 129.304355,4.63176745 C128.888226,5.10885542 128.678832,5.70323407 128.678832,6.41423844 L128.678832,10.3104794 L127.578867,10.3104794 L127.578867,3.04809216 L128.486672,3.04809216 L128.612567,4.39322347 L128.665573,4.39322347 C128.934597,3.92077665 129.259287,3.55632465 129.63963,3.29989462 C130.019973,3.04346459 130.437432,2.91557526 130.891993,2.91557526 L130.892006,2.91557526 Z" id="Path"></path>
                    <path d="M139.386889,6.67266335 C139.386889,7.8567795 139.088689,8.78114083 138.492329,9.4457609 C137.895969,10.110381 137.07165,10.4430099 136.020729,10.4430099 C135.371349,10.4430099 134.79487,10.2906121 134.291279,9.98580287 C133.787687,9.68099366 133.399378,9.24365397 133.125049,8.6737974 C132.850719,8.10394082 132.714226,7.43667448 132.714226,6.67266335 C132.714226,5.4885472 133.009753,4.56683214 133.60215,3.90620182 C134.194547,3.24557151 135.016193,2.91557526 136.067127,2.91557526 C137.083592,2.91557526 137.890676,3.25351031 138.488366,3.92939398 C139.087386,4.60527764 139.386889,5.51970529 139.386889,6.67266335 L139.386889,6.67266335 Z M133.853939,6.67266335 C133.853939,7.6003359 134.039476,8.30736409 134.410551,8.79306939 C134.781625,9.27877468 135.327625,9.52195981 136.047233,9.52195981 C136.766841,9.52195981 137.31417,9.2801046 137.687891,8.79638061 C138.060282,8.31265662 138.247149,7.60497705 138.247149,6.67266335 C138.247149,5.74961837 138.060282,5.04789629 137.687891,4.56882701 C137.31417,4.08974417 136.762865,3.84987027 136.033974,3.84987027 C135.314366,3.84987027 134.771013,4.08643294 134.403915,4.55887977 C134.036816,5.03132659 133.853939,5.73637347 133.853939,6.67266335 L133.853939,6.67266335 Z" id="Shape"></path>
                    <path d="M140.433834,13.5706258 C140.013729,13.5706258 139.674464,13.5156106 139.413392,13.4049559 L139.413392,12.5104092 C139.718202,12.5985367 140.019035,12.6429397 140.314562,12.6429397 C140.659133,12.6429397 140.912252,12.5488411 141.073932,12.3613226 C141.234282,12.1738041 141.315122,11.8875459 141.315122,11.5032265 L141.315122,3.04810573 L142.415087,3.04810573 L142.415087,11.4237164 C142.415087,12.8549938 141.755108,13.5706258 140.433834,13.5706258 L140.433834,13.5706258 Z M141.222353,1.08009752 C141.222353,0.828295058 141.284642,0.644087753 141.407891,0.526810639 C141.531139,0.409533526 141.686196,0.351220663 141.871734,0.351220663 C142.047989,0.351220663 142.2004,0.410863444 142.328941,0.530135436 C142.457481,0.649407427 142.5211,0.832949774 142.5211,1.08011109 C142.5211,1.3272724 142.457481,1.51214466 142.328941,1.63339796 C142.2004,1.75465126 142.047989,1.81562396 141.871734,1.81562396 C141.686196,1.81562396 141.531139,1.75466483 141.407891,1.63339796 C141.284642,1.51213109 141.222353,1.32725883 141.222353,1.08011109 L141.222353,1.08009752 Z" id="Shape"></path>
                    <path d="M147.815493,10.4430099 C146.742031,10.4430099 145.895199,10.1163385 145.274982,9.46231703 C144.653435,8.80830917 144.343333,7.90050397 144.343333,6.73891501 C144.343333,5.56805733 144.630908,4.6383899 145.20873,3.94926133 C145.783893,3.26013276 146.559168,2.91556169 147.530578,2.91556169 C148.44103,2.91556169 149.160638,3.21506481 149.690746,3.81341964 C150.220854,4.41177448 150.485902,5.20162403 150.485902,6.18231691 L150.485902,6.8780815 L145.483073,6.8780815 C145.505601,7.73088506 145.720288,8.37760551 146.128478,8.81957277 C146.537984,9.26154002 147.113147,9.48219796 147.855282,9.48219796 C148.637179,9.48219796 149.409808,9.31852297 150.17447,8.99185152 L150.17447,9.9725444 C149.786175,10.1401956 149.417746,10.2607839 149.070529,10.3336716 C148.724642,10.4065593 148.305853,10.4430099 147.81552,10.4430099 L147.815493,10.4430099 Z M147.517306,3.83662536 C146.934191,3.83662536 146.469032,4.02680373 146.123144,4.40648194 C145.775927,4.78617372 145.571839,5.31229226 145.50955,5.98353478 L149.3064,5.98353478 C149.3064,5.28976507 149.151342,4.75900538 148.842557,4.38991224 C148.533771,4.0208191 148.091139,3.83662536 147.517306,3.83662536 L147.517306,3.83662536 Z" id="Shape"></path>
                    <path d="M153.447821,6.59315321 C153.637334,6.32346471 153.927568,5.97028988 154.315864,5.53295019 L156.661569,3.04810573 L157.966939,3.04810573 L155.024873,6.14256863 L158.172357,10.310493 L156.84047,10.310493 L154.276102,6.8780815 L153.447821,7.59371345 L153.447821,10.310493 L152.361114,10.310493 L152.361114,0 L153.447821,0 L153.447821,5.46667139 C153.447821,5.70985652 153.430586,6.08490715 153.394814,6.59313964 L153.447821,6.59313964 L153.447821,6.59315321 Z" id="Path"></path>
                    <path d="M161.830054,9.53521829 C162.02486,9.53521829 162.211727,9.52064346 162.393288,9.49214521 C162.574849,9.46364695 162.717978,9.43383234 162.823991,9.40268782 L162.823991,10.2442278 C162.70472,10.3018757 162.529781,10.348925 162.296543,10.3866919 C162.065951,10.4244589 161.856557,10.4430099 161.67102,10.4430099 C160.266246,10.4430099 159.563872,9.70285589 159.563872,8.22321281 L159.563872,3.9028906 L158.52355,3.9028906 L158.52355,3.37279587 L159.563872,2.91558883 L160.027715,1.36503938 L160.663837,1.36503938 L160.663837,3.04810573 L162.770985,3.04810573 L162.770985,3.9028906 L160.663837,3.9028906 L160.663837,8.1768285 C160.663837,8.61416819 160.767204,8.95010835 160.975269,9.18402476 C161.183333,9.41794117 161.468262,9.53521829 161.830054,9.53521829 L161.830054,9.53521829 Z" id="Path"></path>
                </g>
            </g>
        </g>
    </g>
</svg>