<?xml version="1.0" encoding="UTF-8" standalone="no"?>
<svg
   xmlns:dc="http://purl.org/dc/elements/1.1/"
   xmlns:cc="http://creativecommons.org/ns#"
   xmlns:rdf="http://www.w3.org/1999/02/22-rdf-syntax-ns#"
   xmlns:svg="http://www.w3.org/2000/svg"
   xmlns="http://www.w3.org/2000/svg"
   xmlns:sodipodi="http://sodipodi.sourceforge.net/DTD/sodipodi-0.dtd"
   xmlns:inkscape="http://www.inkscape.org/namespaces/inkscape"
   width="24"
   height="24"
   viewBox="0 0 24 24"
   version="1.1"
   id="svg8"
   sodipodi:docname="type-location.svg"
   inkscape:version="0.92.5 (2060ec1f9f, 2020-04-08)">
  <metadata
     id="metadata14">
    <rdf:RDF>
      <cc:Work
         rdf:about="">
        <dc:format>image/svg+xml</dc:format>
        <dc:type
           rdf:resource="http://purl.org/dc/dcmitype/StillImage" />
        <dc:title></dc:title>
      </cc:Work>
    </rdf:RDF>
  </metadata>
  <defs
     id="defs12" />
  <sodipodi:namedview
     pagecolor="#ffffff"
     bordercolor="#666666"
     borderopacity="1"
     objecttolerance="10"
     gridtolerance="10"
     guidetolerance="10"
     inkscape:pageopacity="0"
     inkscape:pageshadow="2"
     inkscape:window-width="1148"
     inkscape:window-height="764"
     id="namedview10"
     showgrid="false"
     inkscape:zoom="10.727273"
     inkscape:cx="7.5"
     inkscape:cy="11"
     inkscape:window-x="0"
     inkscape:window-y="27"
     inkscape:window-maximized="0"
     inkscape:current-layer="svg8" />
  <g
     transform="translate(-4.1929,-4.014)"
     id="g6"
     style="fill:#000000;fill-rule:evenodd">
    <path
       d="m 10.0004,12.193 c 0,2.984 4.739,10.7 6.192,12.995 1.454,-2.295 6.193,-10.011 6.193,-12.995 0,-3.415 -2.778,-6.193 -6.193,-6.193 -3.414,0 -6.192,2.778 -6.192,6.193 z m 6.192,14.835 -0.418,-0.639 C 15.4974,25.967 9.0004,15.995 9.0004,12.193 9.0004,8.227 12.2264,5 16.1924,5 c 3.967,0 7.193,3.227 7.193,7.193 0,3.802 -6.498,13.774 -6.775,14.196 z"
       id="path2"
       inkscape:connector-curvature="0" />
    <path
       d="m 16.1924,8.7168 c -1.61,0 -2.921,1.311 -2.921,2.921 0,1.61 1.311,2.921 2.921,2.921 1.61,0 2.921,-1.311 2.921,-2.921 0,-1.61 -1.311,-2.921 -2.921,-2.921 m 0,6.842 c -2.162,0 -3.921,-1.759 -3.921,-3.921 0,-2.162 1.759,-3.921 3.921,-3.921 2.162,0 3.921,1.759 3.921,3.921 0,2.162 -1.759,3.921 -3.921,3.921"
       id="path4"
       inkscape:connector-curvature="0" />
  </g>
</svg>
