<svg xmlns="http://www.w3.org/2000/svg" width="32" height="32" viewBox="0 0 32 32">
  <g fill="none" fill-rule="evenodd">
    <path stroke="#000000" d="M12.25,6.0901296 L20.1076373,6.0901296 L21.4942791,6.0901296 M24.1666667,6 C25.1791887,6 26,6.8954305 26,8 L26,24 C26,25.1045695 25.1791887,26 24.1666667,26 L5.83333333,26 C4.82081129,26 4,25.1045695 4,24 L4,8 C4,6.8954305 4.82081129,6 5.83333333,6 L9.5,6" stroke-linecap="round" stroke-linejoin="round"/>
    <line x1="26" x2="7.1" y1="10.3" y2="10.3" stroke="#000000" stroke-linecap="round" stroke-linejoin="round"/>
    <polyline stroke="#000000" points="21.5 13.644 14 21.144 10.5 17.144"/>
    <line x1="9.5" x2="9.5" y1="4.5" y2="8.5" stroke="#000000" stroke-linecap="round" stroke-linejoin="round"/>
    <line x1="21.7" x2="21.7" y1="4.5" y2="8.5" stroke="#000000" stroke-linecap="round" stroke-linejoin="round"/>
  </g>
</svg>
