<?xml version="1.0" encoding="UTF-8"?>
<svg width="177px" height="200px" viewBox="0 0 177 200" version="1.1" xmlns="http://www.w3.org/2000/svg" xmlns:xlink="http://www.w3.org/1999/xlink">
    <title>Alpha-Siegel-fin</title>
    <g id="Alle-Seiten" stroke="none" stroke-width="1" fill="none" fill-rule="evenodd">
        <g id="Alpha-Siegel-fin">
            <path d="M88.354,176.437 C136.886,176.437 176.228,137.094 176.228,88.563 C176.228,40.031 136.886,0.689 88.354,0.689 C39.823,0.689 0.48,40.031 0.48,88.563 C0.48,137.094 39.823,176.437 88.354,176.437" id="Fill-1" fill="#2F773C"></path>
            <path d="M88.354,152.342 C123.579,152.342 152.134,123.787 152.134,88.563 C152.134,53.338 123.579,24.783 88.354,24.783 C53.13,24.783 24.575,53.338 24.575,88.563 C24.575,123.787 53.13,152.342 88.354,152.342" id="Fill-2" fill="#FFFFFE"></path>
            <path d="M88.354,150.925 C122.796,150.925 150.717,123.004 150.717,88.563 C150.717,54.121 122.796,26.2 88.354,26.2 C53.913,26.2 25.992,54.121 25.992,88.563 C25.992,123.004 53.913,150.925 88.354,150.925" id="Fill-3" fill="#76BB53"></path>
            <path d="M88.354,26.2 C53.913,26.2 25.992,54.121 25.992,88.563 C25.992,123.004 53.913,150.925 88.354,150.925 L88.354,26.2" id="Fill-4" fill="#AAA8A4"></path>
            <path d="M106.076,85.077 C114.263,85.077 120.899,78.441 120.899,70.254 C120.899,62.068 114.263,55.431 106.076,55.431 C97.89,55.431 91.253,62.068 91.253,70.254 C91.253,78.441 97.89,85.077 106.076,85.077" id="Fill-5" fill="#FFFFFE"></path>
            <path d="M101.424,70.611 C102.334,70.611 103.072,69.873 103.072,68.963 C103.072,68.053 102.334,67.315 101.424,67.315 C100.514,67.315 99.776,68.053 99.776,68.963 C99.776,69.873 100.514,70.611 101.424,70.611" id="Fill-6" fill="#76BB53"></path>
            <path d="M110.729,70.611 C111.639,70.611 112.377,69.873 112.377,68.963 C112.377,68.053 111.639,67.315 110.729,67.315 C109.818,67.315 109.081,68.053 109.081,68.963 C109.081,69.873 109.818,70.611 110.729,70.611" id="Fill-7" fill="#76BB53"></path>
            <path d="M106.082,79.771 C103.212,79.771 100.584,78.449 99.053,76.235 C98.817,75.894 98.903,75.427 99.244,75.192 C99.582,74.955 100.051,75.04 100.287,75.382 C101.537,77.191 103.704,78.271 106.082,78.271 C108.452,78.271 110.614,77.197 111.867,75.398 C112.102,75.059 112.57,74.974 112.911,75.211 C113.251,75.448 113.335,75.916 113.098,76.256 C111.565,78.457 108.942,79.771 106.082,79.771" id="Fill-8" fill="#76BB53"></path>
            <path d="M138.557,85.077 C146.743,85.077 153.38,78.441 153.38,70.254 C153.38,62.068 146.743,55.431 138.557,55.431 C130.37,55.431 123.734,62.068 123.734,70.254 C123.734,78.441 130.37,85.077 138.557,85.077" id="Fill-9" fill="#FFFFFE"></path>
            <path d="M129.542,73.185 C130.354,72.967 130.837,72.132 130.619,71.319 C130.401,70.506 129.566,70.024 128.753,70.242 C127.941,70.46 127.459,71.295 127.676,72.107 C127.894,72.92 128.729,73.402 129.542,73.185" id="Fill-10" fill="#2F773C"></path>
            <path d="M137.467,71.164 C138.28,70.946 138.762,70.111 138.544,69.298 C138.327,68.485 137.491,68.003 136.679,68.221 C135.866,68.439 135.384,69.274 135.602,70.086 C135.819,70.899 136.655,71.381 137.467,71.164" id="Fill-11" fill="#2F773C"></path>
            <path d="M133.534,80.484 C132.148,80.484 131.164,80.17 131.14,80.162 C130.748,80.031 130.534,79.607 130.665,79.214 C130.795,78.821 131.222,78.604 131.611,78.738 C131.812,78.801 136.355,80.212 139.082,75.862 C139.302,75.513 139.764,75.406 140.116,75.625 C140.467,75.845 140.573,76.308 140.353,76.659 C138.366,79.83 135.532,80.484 133.534,80.484" id="Fill-12" fill="#2F773C"></path>
            <path d="M67.862,85.077 C76.049,85.077 82.685,78.441 82.685,70.254 C82.685,62.068 76.049,55.431 67.862,55.431 C59.676,55.431 53.039,62.068 53.039,70.254 C53.039,78.441 59.676,85.077 67.862,85.077" id="Fill-13" fill="#FFFFFE"></path>
            <path d="M63.163,70.733 C62.025,70.733 60.996,70.286 60.411,69.537 C60.156,69.21 60.214,68.739 60.541,68.484 C60.868,68.229 61.339,68.287 61.594,68.614 C61.887,68.99 62.504,69.233 63.163,69.233 C63.8,69.233 64.407,69 64.708,68.641 C64.975,68.323 65.446,68.281 65.765,68.547 C66.082,68.813 66.124,69.286 65.858,69.603 C65.266,70.311 64.258,70.733 63.163,70.733" id="Fill-14" fill="#898985"></path>
            <path d="M72.601,70.733 C71.463,70.733 70.434,70.286 69.85,69.537 C69.595,69.21 69.653,68.739 69.98,68.484 C70.307,68.229 70.778,68.287 71.032,68.614 C71.326,68.99 71.941,69.233 72.601,69.233 C73.248,69.233 73.84,69.006 74.147,68.64 C74.413,68.323 74.885,68.282 75.204,68.547 C75.521,68.813 75.563,69.286 75.296,69.604 C74.704,70.311 73.696,70.733 72.601,70.733" id="Fill-15" fill="#898985"></path>
            <path d="M71.137,78.641 C70.015,78.641 68.747,78.337 67.442,77.49 C64.37,75.498 61.999,77.361 61.9,77.442 C61.578,77.702 61.106,77.653 60.846,77.335 C60.585,77.016 60.629,76.546 60.947,76.283 C62.072,75.354 65.047,74.147 68.259,76.232 C71.331,78.225 73.726,76.359 73.827,76.278 C74.149,76.021 74.62,76.07 74.88,76.391 C75.14,76.711 75.094,77.18 74.775,77.441 C74.102,77.992 72.776,78.641 71.137,78.641" id="Fill-16" fill="#898985"></path>
            <path d="M37.221,199.24 L40.101,199.24 L35.581,185.44 L32.241,185.44 L27.761,199.24 L30.621,199.24 L31.561,196.04 L36.281,196.04 L37.221,199.24 Z M33.941,188.12 C34.021,188.4 34.094,188.654 34.161,188.88 C34.227,189.107 34.294,189.33 34.361,189.55 C34.427,189.77 34.494,189.994 34.561,190.22 C34.627,190.447 34.701,190.694 34.781,190.96 L35.561,193.64 L32.261,193.64 L33.061,190.96 C33.154,190.667 33.234,190.404 33.301,190.17 C33.367,189.937 33.431,189.717 33.491,189.51 C33.551,189.304 33.611,189.09 33.671,188.87 C33.731,188.65 33.794,188.4 33.861,188.12 L33.941,188.12 Z M49.421,196.84 L44.461,196.84 L44.461,185.44 L41.661,185.44 L41.661,199.24 L49.421,199.24 L49.421,196.84 Z M53.78,199.24 L53.78,194.46 L55.04,194.46 C55.667,194.46 56.264,194.357 56.83,194.15 C57.397,193.944 57.897,193.647 58.33,193.26 C58.764,192.874 59.107,192.394 59.36,191.82 C59.614,191.247 59.74,190.594 59.74,189.86 C59.74,189.34 59.664,188.82 59.51,188.3 C59.357,187.78 59.08,187.307 58.68,186.88 C58.28,186.454 57.737,186.107 57.05,185.84 C56.364,185.574 55.494,185.44 54.44,185.44 L50.98,185.44 L50.98,199.24 L53.78,199.24 Z M54.68,187.84 C55.36,187.84 55.89,188.01 56.27,188.35 C56.65,188.69 56.84,189.194 56.84,189.86 C56.84,190.554 56.69,191.094 56.39,191.48 C56.09,191.867 55.66,192.06 55.1,192.06 L53.78,192.06 L53.78,187.84 L54.68,187.84 Z M72.1,199.24 L72.1,185.44 L69.3,185.44 L69.3,190.84 L64.56,190.84 L64.56,185.44 L61.76,185.44 L61.76,199.24 L64.56,199.24 L64.56,193.24 L69.3,193.24 L69.3,199.24 L72.1,199.24 Z M83.12,199.24 L86,199.24 L81.48,185.44 L78.14,185.44 L73.66,199.24 L76.52,199.24 L77.46,196.04 L82.18,196.04 L83.12,199.24 Z M79.84,188.12 C79.92,188.4 79.993,188.654 80.06,188.88 C80.127,189.107 80.193,189.33 80.26,189.55 C80.327,189.77 80.393,189.994 80.46,190.22 C80.527,190.447 80.6,190.694 80.68,190.96 L81.46,193.64 L78.16,193.64 L78.96,190.96 C79.053,190.667 79.133,190.404 79.2,190.17 C79.267,189.937 79.33,189.717 79.39,189.51 C79.45,189.304 79.51,189.09 79.57,188.87 C79.63,188.65 79.693,188.4 79.76,188.12 L79.84,188.12 Z M87,195.24 L91.8,195.24 L91.8,192.88 L87,192.88 L87,195.24 Z M93.24,198.72 C93.4,198.8 93.6,198.88 93.84,198.96 C94.08,199.04 94.34,199.117 94.62,199.19 C94.9,199.264 95.2,199.324 95.52,199.37 C95.84,199.417 96.16,199.44 96.48,199.44 C97.253,199.44 97.95,199.344 98.57,199.15 C99.19,198.957 99.716,198.68 100.15,198.32 C100.583,197.96 100.916,197.53 101.15,197.03 C101.383,196.53 101.5,195.967 101.5,195.34 C101.5,194.687 101.406,194.13 101.22,193.67 C101.033,193.21 100.79,192.824 100.49,192.51 C100.19,192.197 99.853,191.937 99.48,191.73 C99.106,191.524 98.733,191.34 98.36,191.18 C98.066,191.06 97.786,190.944 97.52,190.83 C97.253,190.717 97.02,190.587 96.82,190.44 C96.62,190.294 96.46,190.11 96.34,189.89 C96.22,189.67 96.16,189.387 96.16,189.04 C96.16,188.894 96.19,188.737 96.25,188.57 C96.31,188.404 96.406,188.247 96.54,188.1 C96.673,187.954 96.853,187.834 97.08,187.74 C97.306,187.647 97.586,187.6 97.92,187.6 C98.386,187.6 98.823,187.644 99.23,187.73 C99.636,187.817 100.02,187.927 100.38,188.06 L100.98,185.78 C100.526,185.607 100.026,185.474 99.48,185.38 C98.933,185.287 98.413,185.24 97.92,185.24 C97.2,185.24 96.56,185.334 96,185.52 C95.44,185.707 94.963,185.97 94.57,186.31 C94.176,186.65 93.876,187.05 93.67,187.51 C93.463,187.97 93.36,188.48 93.36,189.04 C93.36,189.68 93.453,190.22 93.64,190.66 C93.826,191.1 94.066,191.474 94.36,191.78 C94.653,192.087 94.986,192.34 95.36,192.54 C95.733,192.74 96.1,192.92 96.46,193.08 C96.74,193.2 97.01,193.32 97.27,193.44 C97.53,193.56 97.756,193.7 97.95,193.86 C98.143,194.02 98.3,194.217 98.42,194.45 C98.54,194.684 98.6,194.98 98.6,195.34 C98.6,195.66 98.533,195.927 98.4,196.14 C98.266,196.354 98.1,196.527 97.9,196.66 C97.7,196.794 97.473,196.89 97.22,196.95 C96.966,197.01 96.72,197.04 96.48,197.04 C96.24,197.04 95.983,197.017 95.71,196.97 C95.436,196.924 95.156,196.864 94.87,196.79 C94.583,196.717 94.3,196.627 94.02,196.52 C93.74,196.414 93.48,196.3 93.24,196.18 L93.24,198.72 Z M103.48,199.24 L106.28,199.24 L106.28,185.44 L103.48,185.44 L103.48,199.24 Z M116.779,196.84 L111.819,196.84 L111.819,193.24 L116.379,193.24 L116.379,190.84 L111.819,190.84 L111.819,187.84 L116.779,187.84 L116.779,185.44 L109.019,185.44 L109.019,199.24 L116.779,199.24 L116.779,196.84 Z M123.779,193.98 L126.639,193.98 L126.639,196.84 C126.479,196.894 126.232,196.94 125.899,196.98 C125.566,197.02 125.206,197.04 124.819,197.04 C123.992,197.04 123.329,196.887 122.829,196.58 C122.329,196.274 121.949,195.887 121.689,195.42 C121.429,194.954 121.259,194.447 121.179,193.9 C121.099,193.354 121.059,192.834 121.059,192.34 C121.059,190.714 121.419,189.524 122.139,188.77 C122.859,188.017 123.892,187.64 125.239,187.64 C125.919,187.64 126.496,187.677 126.969,187.75 C127.442,187.824 127.892,187.914 128.319,188.02 L128.319,185.66 C127.852,185.527 127.372,185.424 126.879,185.35 C126.386,185.277 125.839,185.24 125.239,185.24 C124.226,185.24 123.286,185.39 122.419,185.69 C121.552,185.99 120.799,186.437 120.159,187.03 C119.519,187.624 119.019,188.364 118.659,189.25 C118.299,190.137 118.119,191.167 118.119,192.34 C118.119,193.354 118.252,194.294 118.519,195.16 C118.786,196.027 119.186,196.777 119.719,197.41 C120.252,198.044 120.922,198.54 121.729,198.9 C122.536,199.26 123.472,199.44 124.539,199.44 C125.419,199.44 126.276,199.38 127.109,199.26 C127.942,199.14 128.639,199.007 129.199,198.86 L129.199,191.64 L123.779,191.64 L123.779,193.98 Z M139.219,196.84 L134.259,196.84 L134.259,193.24 L138.819,193.24 L138.819,190.84 L134.259,190.84 L134.259,187.84 L139.219,187.84 L139.219,185.44 L131.459,185.44 L131.459,199.24 L139.219,199.24 L139.219,196.84 Z M149.019,196.84 L144.059,196.84 L144.059,185.44 L141.259,185.44 L141.259,199.24 L149.019,199.24 L149.019,196.84 L149.019,196.84 Z" id="Fill-17" fill="#2F773C"></path>
            <path d="M46.767,96.339 C50.262,97.019 81.916,103.311 84.982,103.865 C80.529,102.833 49.869,92.667 49.869,92.667 C46.767,92.137 46.767,94.978 46.767,94.978 L46.767,96.339" id="Fill-18" fill="#FFFFFE"></path>
            <path d="M130.016,96.339 C126.521,97.019 94.867,103.311 91.802,103.865 C96.254,102.833 126.914,92.667 126.914,92.667 C130.016,92.138 130.016,94.978 130.016,94.978 L130.016,96.339" id="Fill-19" fill="#FFFFFE"></path>
            <path d="M91.618,158.464 L130.267,150.855 C130.267,150.855 133.637,150.204 133.637,146.713 L133.637,100.652 C133.637,100.652 133.637,97.161 130.267,97.812 C130.267,97.812 94.101,105.001 91.618,105.422 C89.135,105.841 87.685,105.879 85.091,105.422 C82.497,104.964 46.442,97.812 46.442,97.812 C43.072,97.161 43.072,100.652 43.072,100.652 L43.072,146.713 C43.072,150.204 46.442,150.855 46.442,150.855 L85.091,158.464 C87.398,158.91 89.311,158.91 91.618,158.464" id="Fill-20" fill="#FFFFFE"></path>
            <path d="M72.445,122.236 C72.445,118.25 69.371,115.785 65.689,115.785 C61.872,115.785 58.968,118.453 58.968,122.27 L62.413,122.27 C62.413,120.446 63.595,118.858 65.689,118.858 C67.649,118.858 69,120.345 69,122.236 C69,123.182 68.561,123.993 67.953,124.803 L65.318,128.35 C64.507,129.431 64.169,130.309 64.169,131.694 L64.169,132.876 L67.615,132.876 L67.615,131.863 C67.615,131.323 67.851,130.546 68.223,130.039 L70.824,126.391 C71.736,125.141 72.445,123.858 72.445,122.236 Z M63.967,140.037 L67.784,140.037 L67.784,136.355 L63.967,136.355 L63.967,140.037 Z" id="Fill-21" fill="#898985"></path>
            <path d="M113.003,115.886 L108.815,115.886 L109.558,132.775 L112.26,132.775 L113.003,115.886 Z M109.017,139.936 L112.8,139.936 L112.8,136.254 L109.017,136.254 L109.017,139.936 Z" id="Fill-22" fill="#2F773C"></path>
        </g>
    </g>
</svg>