<?xml version="1.0" encoding="UTF-8"?>
<svg width="340px" height="42px" viewBox="0 0 340 42" version="1.1" xmlns="http://www.w3.org/2000/svg" xmlns:xlink="http://www.w3.org/1999/xlink">
    <title>gemeinsamdigital</title>
    <g id="Symbole" stroke="none" stroke-width="1" fill="none" fill-rule="evenodd">
        <g id="64em/Footer-Copy-2" transform="translate(-586, -83)" fill-rule="nonzero">
            <g id="gemeinsamdigital" transform="translate(586.4775, 83)">
                <rect id="Rectangle" fill="#FFFFFF" x="0" y="0.044397463" width="339.507747" height="41.9556025"></rect>
                <path d="M277.543625,27.9704017 L279.497115,27.9704017 C279.630307,27.9704017 279.733902,27.8668076 279.733902,27.7336152 L279.733902,18.5137421 C279.733902,18.3953488 279.807898,18.3509514 279.867094,18.4693446 L285.135599,27.807611 C285.194795,27.9112051 285.313189,27.9704017 285.431582,27.9704017 L287.681056,27.9704017 C287.814248,27.9704017 287.917842,27.8668076 287.917842,27.7336152 L287.917842,14.2367865 C287.917842,14.1035941 287.814248,14 287.681056,14 L285.727565,14 C285.594373,14 285.490779,14.1035941 285.490779,14.2367865 L285.490779,23.4714588 C285.490779,23.589852 285.416783,23.6342495 285.357586,23.5158562 L280.089082,14.1627907 C280.029885,14.0591966 279.911492,14 279.793098,14 L277.543625,14 C277.410432,14 277.306838,14.1035941 277.306838,14.2367865 L277.306838,27.7336152 C277.306838,27.8668076 277.395633,27.9704017 277.543625,27.9704017 Z" id="Path" fill="#E40422"></path>
                <path d="M236.875507,27.9704017 L244.141899,27.9704017 C244.275092,27.9704017 244.378686,27.8668076 244.378686,27.7336152 L244.378686,25.8985201 C244.378686,25.7653277 244.275092,25.6617336 244.141899,25.6617336 L239.184177,25.6617336 C239.110181,25.6617336 239.065784,25.602537 239.065784,25.5433404 L239.065784,22.1839323 C239.065784,22.1099366 239.124981,22.0655391 239.184177,22.0655391 L244.141899,22.0655391 C244.275092,22.0655391 244.378686,21.961945 244.378686,21.8287526 L244.378686,20.0084567 C244.378686,19.8752643 244.275092,19.7716702 244.141899,19.7716702 L239.184177,19.7716702 C239.110181,19.7716702 239.065784,19.7272727 239.065784,19.653277 L239.065784,16.4418605 C239.065784,16.3678647 239.124981,16.3234672 239.184177,16.3234672 L244.141899,16.3234672 C244.275092,16.3234672 244.378686,16.2198732 244.378686,16.0866808 L244.378686,14.2367865 C244.378686,14.1035941 244.275092,14 244.141899,14 L236.875507,14 C236.742314,14 236.63872,14.1035941 236.63872,14.2367865 L236.63872,27.7336152 C236.63872,27.8668076 236.742314,27.9704017 236.875507,27.9704017 Z" id="Path" fill="#E40422"></path>
                <path d="M248.256068,27.9704017 L250.239157,27.9704017 C250.372349,27.9704017 250.475944,27.8668076 250.475944,27.7336152 L250.475944,24.0190275 C250.475944,23.9450317 250.53514,23.9006342 250.594337,23.9006342 L252.118651,23.9006342 C252.177848,23.9006342 252.237045,23.9450317 252.281442,23.97463 L254.960092,27.807611 C255.019289,27.9112051 255.122883,27.9704017 255.241276,27.9704017 L257.757135,27.9704017 C257.949524,27.9704017 258.02352,27.8372093 257.890328,27.6744186 L254.900895,23.6194503 C254.856498,23.5602537 254.856498,23.4862579 254.945293,23.4418605 C256.721193,22.7167019 257.905127,21.1479915 257.905127,18.9577167 C257.905127,15.8498943 255.552059,14.0147992 252.547827,14.0147992 L248.270867,14.0147992 C248.137675,14.0147992 248.034081,14.1183932 248.034081,14.2515856 L248.034081,27.7484144 C248.019281,27.8668076 248.122876,27.9704017 248.256068,27.9704017 Z M250.475944,16.4270613 C250.475944,16.3530655 250.520341,16.3086681 250.594337,16.3086681 L252.414635,16.3086681 C254.027744,16.3086681 255.330071,17.167019 255.330071,18.9429175 C255.330071,20.7188161 254.027744,21.577167 252.399836,21.577167 L250.594337,21.577167 C250.520341,21.577167 250.475944,21.5179704 250.475944,21.4587738 L250.475944,16.4270613 L250.475944,16.4270613 Z" id="Shape" fill="#E40422"></path>
                <path d="M224.385008,27.9704017 L229.120742,27.9704017 C231.917785,27.9704017 233.397702,26.2684989 233.397702,24.0338266 C233.397702,22.5835095 232.702141,21.4735729 231.533007,20.8668076 C231.459011,20.807611 231.459011,20.7484144 231.533007,20.7040169 C232.53935,20.0676533 233.131317,19.0613108 233.131317,17.7737844 C233.131317,15.6427061 231.6514,14 228.943152,14 L224.385008,14 C224.251815,14 224.148221,14.1035941 224.148221,14.2367865 L224.148221,27.7336152 C224.148221,27.8668076 224.237016,27.9704017 224.385008,27.9704017 Z M226.575285,16.4270613 C226.575285,16.3530655 226.619682,16.3086681 226.693678,16.3086681 L228.61757,16.3086681 C229.8755,16.3086681 230.571061,16.9894292 230.571061,18.02537 C230.571061,19.0613108 229.8755,19.756871 228.61757,19.756871 L226.693678,19.756871 C226.619682,19.756871 226.575285,19.7124736 226.575285,19.6384778 L226.575285,16.4270613 Z M226.575285,22.1839323 C226.575285,22.1099366 226.619682,22.0655391 226.693678,22.0655391 L228.809959,22.0655391 C230.112286,22.0655391 230.822647,22.8054968 230.822647,23.8562368 C230.822647,24.9365751 230.097487,25.6469345 228.809959,25.6469345 L226.693678,25.6469345 C226.619682,25.6469345 226.575285,25.5877378 226.575285,25.5285412 L226.575285,22.1839323 Z" id="Shape" fill="#E40422"></path>
                <path d="M271.401969,27.9704017 L273.385058,27.9704017 C273.51825,27.9704017 273.621845,27.8668076 273.621845,27.7336152 L273.621845,14.2367865 C273.621845,14.1035941 273.51825,14 273.385058,14 L271.401969,14 C271.268777,14 271.165183,14.1035941 271.165183,14.2367865 L271.165183,27.7336152 C271.165183,27.8668076 271.253978,27.9704017 271.401969,27.9704017 Z" id="Path" fill="#E40422"></path>
                <path d="M261.294136,27.9704017 L268.101754,27.9704017 C268.234947,27.9704017 268.338541,27.8668076 268.338541,27.7336152 L268.338541,25.8985201 C268.338541,25.7653277 268.234947,25.6617336 268.101754,25.6617336 L263.632405,25.6617336 C263.558409,25.6617336 263.514012,25.602537 263.514012,25.5433404 L263.514012,14.2367865 C263.514012,14.1035941 263.410418,14 263.277225,14 L261.294136,14 C261.160944,14 261.05735,14.1035941 261.05735,14.2367865 L261.05735,27.7336152 C261.05735,27.8668076 261.160944,27.9704017 261.294136,27.9704017 Z" id="Path" fill="#E40422"></path>
                <path d="M297.552102,0.0295983087 L213.65561,0.0295983087 L213.65561,0.0295983087 L0,0 L0,41.9556025 L213.65561,41.9852008 L214.499163,41.9852008 L297.566901,41.9852008 L339.522546,41.9852008 L339.522546,0.0295983087 L297.552102,0.0295983087 Z M213.65561,41.141649 L0.843552661,41.1120507 L0.843552661,0.843551797 L213.65561,0.873150106 L213.65561,41.141649 Z M297.552102,41.141649 L214.484363,41.141649 L214.484363,0.873150106 L297.552102,0.873150106 L297.552102,41.141649 Z M338.664195,41.141649 L298.395654,41.141649 L298.395654,0.873150106 L338.664195,0.873150106 L338.664195,41.141649 L338.664195,41.141649 Z" id="Shape" fill="#000000"></path>
                <path d="M309.435835,20.7336152 C309.435835,20.7336152 310.146195,21.1479915 310.294187,21.2515856 L311.389325,21.9027484 C311.552116,22.0063425 311.759304,22.0359408 311.951694,21.9915433 L316.302649,21.1183932 C316.406244,22.7906977 316.83542,24.167019 316.83542,24.167019 C316.051064,24.9217759 314.970724,26.3572939 314.615544,28.3403805 C314.408356,29.5095137 314.467552,30.5750529 314.793134,31.832981 C314.186368,31.8625793 313.594401,31.9513742 313.106029,32.2917548 C312.647255,32.6173362 312.54366,33.1945032 312.54366,33.4756871 L315.947469,33.4904863 L316.228654,33.4904863 C316.583834,33.4904863 316.672629,33.1353066 316.672629,33.1353066 C316.702227,33.0317125 316.717026,32.8837209 316.731825,32.7801268 C316.83542,32.0993658 316.924215,31.3890063 317.530981,30.1754757 C318.019353,29.1839323 318.877705,28.3107822 318.877705,28.3107822 C318.877705,28.3107822 320.313224,30.4270613 322.725489,31.8773784 C322.266715,31.9069767 321.659949,32.0549683 321.304769,32.2621564 C320.7424,32.5729387 320.579609,33.2093023 320.594409,33.5200846 L324.116611,33.5200846 C324.353398,33.5200846 324.560586,33.3572939 324.634582,33.1501057 C324.649381,33.1353066 324.649381,33.1057082 324.649381,33.0761099 C324.649381,33.0613108 324.649381,33.0465116 324.66418,33.0317125 C324.66418,33.0021142 324.66418,32.9577167 324.66418,32.9133192 C324.66418,32.9133192 323.924222,28.0443975 323.583841,26.0021142 C323.687435,25.987315 323.731833,25.9725159 323.731833,25.9725159 C324.057414,25.9133192 324.175808,25.5433404 324.027816,25.3065539 C323.199062,23.8710359 322.903079,22.0951374 322.903079,20.3340381 C322.903079,19.2389006 323.080669,18.2029598 323.42105,17.2114165 C323.435849,17.1522199 323.465448,17.0930233 323.480247,17.0486258 C323.495046,17.0190275 323.509845,16.9450317 323.524644,16.9302326 C323.746632,16.4418605 324.146209,15.3911205 324.264603,14.2071882 C324.368197,13.2452431 324.235004,12.4460888 324.072213,11.7061311 C323.998218,11.3509514 323.791029,10.744186 323.657837,10.4778013 C323.643038,10.4334038 323.613439,10.4038055 323.59864,10.359408 C323.894623,10.0634249 323.95382,9.57505285 323.731833,9.17547569 C323.465448,8.70190275 322.903079,8.5243129 322.488702,8.76109937 C322.444305,8.79069767 322.340711,8.86469345 322.296313,8.89429175 C322.222317,8.83509514 322.17792,8.80549683 322.17792,8.80549683 C322.17792,8.80549683 322.059526,8.73150106 321.955932,8.67230444 C321.955932,8.67230444 321.911535,8.65750529 321.911535,8.65750529 C321.482359,8.46511628 321.023585,8.3615222 320.520413,8.3615222 C320.283626,8.3615222 320.046839,8.39112051 319.810053,8.43551797 C319.306881,8.53911205 318.862906,8.74630021 318.463328,9.0422833 C318.25614,9.10147992 318.034152,9.11627907 318.034152,9.11627907 L317.471784,9.14587738 C317.205399,9.16067653 316.909415,9.14587738 316.909415,9.14587738 C316.776223,9.14587738 316.672629,9.24947146 316.672629,9.38266385 C316.672629,9.397463 316.761424,10.167019 316.761424,10.167019 C316.776223,10.359408 316.865018,10.5369979 317.027809,10.640592 L317.042608,10.6553911 C317.101805,10.6849894 317.116604,10.7145877 317.131403,10.744186 C317.1906,10.9069767 317.323792,11.0845666 317.397788,11.1289641 C317.442186,11.1585624 317.501382,11.1437632 317.501382,11.0993658 C317.604976,10.6849894 317.856562,11.1289641 318.344935,10.8773784 C318.463328,10.8181818 318.537324,11.1141649 318.478127,11.2325581 L318.43373,11.3509514 C318.330136,11.602537 318.108148,11.7801268 317.841763,11.8245243 C317.634575,11.8541226 317.501382,11.8689218 317.516181,11.9133192 C317.54578,12.1501057 317.516181,12.3572939 317.752968,12.5052854 C317.826964,12.5496829 317.856562,12.5496829 317.856562,12.5496829 C318.226542,12.653277 319.306881,13.0676533 317.930558,14.6955603 C317.930558,14.6955603 317.797366,14.8435518 317.693771,14.9915433 C317.664173,15.0359408 317.634575,15.0803383 317.619776,15.1247357 L317.590177,15.1839323 L313.44641,13.6300211 C313.328016,13.5856237 313.165226,13.4524313 313.09123,13.3340381 L312.676853,12.6384778 C312.425267,12.2832981 312.20328,12.1501057 311.759304,12.1205074 C311.448522,12.0909091 311.182137,12.1205074 311.182137,12.1205074 C311.063743,12.1205074 310.989748,12.1501057 310.960149,12.2241015 C310.930551,12.2980973 310.930551,12.4904863 311.048944,12.7420719 L311.404124,13.3932347 C311.433723,13.4376321 311.877698,14.4439746 311.877698,14.4439746 C311.922095,14.5623679 311.996091,14.6807611 312.099685,14.7547569 C312.114485,14.769556 316.347047,17.9661734 316.347047,17.9661734 L311.862899,20.2008457 C311.729706,20.2748414 311.581714,20.2896406 311.433723,20.2452431 C311.270932,20.2008457 311.034145,20.1268499 311.034145,20.1268499 C310.294187,19.8012685 309.746617,20.0232558 309.421036,20.3044397 C309.421036,20.3044397 309.287843,20.422833 309.287843,20.422833 C309.243446,20.5116279 309.302642,20.6744186 309.435835,20.7336152 Z" id="Path" fill="#000000"></path>
                <g id="Group" transform="translate(10.4926, 13.6152)" fill="#000000">
                    <path d="M7.69556813,9.07188161 L7.69556813,7.25158562 C7.69556813,7.11839323 7.79916232,7.01479915 7.93235485,7.01479915 L13.9852152,7.01479915 C14.1184077,7.01479915 14.2220019,7.08879493 14.2220019,7.25158562 C14.0888094,11.8837209 11.3065655,14.7399577 7.28119139,14.7399577 C3.10782559,14.7399577 0,11.7653277 0,7.36997886 C0,2.97463002 3.12262476,0 7.31078973,0 C9.72305435,0 11.7801389,1.02114165 13.0380683,2.70824524 C13.1416625,2.84143763 13.1120642,2.94503171 12.9936708,3.04862579 L11.3953605,4.24735729 C11.2769672,4.35095137 11.1585738,4.30655391 11.0549796,4.18816068 C10.1966278,3.04862579 8.86470252,2.42706131 7.29599056,2.42706131 C4.43975085,2.42706131 2.56025632,4.46934461 2.56025632,7.3551797 C2.56025632,10.2410148 4.45455002,12.2832981 7.26639222,12.2832981 C9.39747263,12.2832981 10.8625904,11.2029598 11.3361638,9.42706131 C11.350963,9.35306554 11.3213647,9.29386892 11.2325696,9.29386892 L7.91755568,9.29386892 C7.79916232,9.30866808 7.69556813,9.205074 7.69556813,9.07188161 Z" id="Path"></path>
                    <path d="M17.1670366,0.384778013 L24.4186297,0.384778013 C24.5518222,0.384778013 24.6554164,0.488372093 24.6554164,0.621564482 L24.6554164,2.45665962 C24.6554164,2.58985201 24.5518222,2.69344609 24.4186297,2.69344609 L19.4905062,2.69344609 C19.4313095,2.69344609 19.3721129,2.73784355 19.3721129,2.81183932 L19.3721129,6.02325581 C19.3721129,6.09725159 19.4165104,6.14164905 19.4905062,6.14164905 L24.4186297,6.14164905 C24.5518222,6.14164905 24.6554164,6.24524313 24.6554164,6.37843552 L24.6554164,8.1987315 C24.6554164,8.33192389 24.5518222,8.43551797 24.4186297,8.43551797 L19.4905062,8.43551797 C19.4313095,8.43551797 19.3721129,8.47991543 19.3721129,8.55391121 L19.3721129,11.9133192 C19.3721129,11.9725159 19.4165104,12.0317125 19.4905062,12.0317125 L24.4186297,12.0317125 C24.5518222,12.0317125 24.6554164,12.1353066 24.6554164,12.2684989 L24.6554164,14.1035941 C24.6554164,14.2367865 24.5518222,14.3403805 24.4186297,14.3403805 L17.1670366,14.3403805 C17.0338441,14.3403805 16.9302499,14.2367865 16.9302499,14.1035941 L16.9302499,0.621564482 C16.9302499,0.488372093 17.0190449,0.384778013 17.1670366,0.384778013 Z" id="Path"></path>
                    <path d="M27.9260328,14.1331924 L27.9260328,0.606765328 C27.9260328,0.488372093 28.0000287,0.384778013 28.1480204,0.384778013 L30.5454858,0.384778013 C30.6638792,0.384778013 30.7674734,0.44397463 30.82667,0.54756871 L34.0676882,6.05285412 C34.1712824,6.21564482 34.2008807,6.21564482 34.3044749,6.05285412 L37.545493,0.54756871 C37.6046897,0.44397463 37.7082839,0.384778013 37.8266772,0.384778013 L40.2241427,0.384778013 C40.3573352,0.384778013 40.4461302,0.488372093 40.4461302,0.606765328 L40.4461302,14.1479915 C40.4461302,14.2663848 40.3721344,14.3699789 40.2241427,14.3699789 L38.2262548,14.3699789 C38.0930623,14.3699789 38.0042672,14.2663848 38.0042672,14.1479915 L38.0042672,4.73572939 C38.0042672,4.61733615 37.9006731,4.55813953 37.8266772,4.69133192 L34.4968641,10.0486258 C34.319274,10.3298097 34.0824873,10.3298097 33.9048973,10.0486258 L30.5750842,4.69133192 C30.5010883,4.55813953 30.3974941,4.61733615 30.3974941,4.73572939 L30.3974941,14.1331924 C30.3974941,14.2515856 30.3234983,14.3551797 30.1755066,14.3551797 L28.1776187,14.3551797 C28.0148278,14.3551797 27.9260328,14.2515856 27.9260328,14.1331924 Z" id="Path"></path>
                    <path d="M44.3975085,0.384778013 L51.6491015,0.384778013 C51.782294,0.384778013 51.8858882,0.488372093 51.8858882,0.621564482 L51.8858882,2.45665962 C51.8858882,2.58985201 51.782294,2.69344609 51.6491015,2.69344609 L46.7209781,2.69344609 C46.6617814,2.69344609 46.6025847,2.73784355 46.6025847,2.81183932 L46.6025847,6.02325581 C46.6025847,6.09725159 46.6469822,6.14164905 46.7209781,6.14164905 L51.6491015,6.14164905 C51.782294,6.14164905 51.8858882,6.24524313 51.8858882,6.37843552 L51.8858882,8.1987315 C51.8858882,8.33192389 51.782294,8.43551797 51.6491015,8.43551797 L46.7209781,8.43551797 C46.6617814,8.43551797 46.6025847,8.47991543 46.6025847,8.55391121 L46.6025847,11.9133192 C46.6025847,11.9725159 46.6469822,12.0317125 46.7209781,12.0317125 L51.6491015,12.0317125 C51.782294,12.0317125 51.8858882,12.1353066 51.8858882,12.2684989 L51.8858882,14.1035941 C51.8858882,14.2367865 51.782294,14.3403805 51.6491015,14.3403805 L44.3975085,14.3403805 C44.2643159,14.3403805 44.1607218,14.2367865 44.1607218,14.1035941 L44.1607218,0.621564482 C44.1607218,0.488372093 44.2643159,0.384778013 44.3975085,0.384778013 Z" id="Path"></path>
                    <path d="M57.5983677,0.621564482 L57.5983677,14.1183932 C57.5983677,14.2515856 57.4947735,14.3551797 57.3615809,14.3551797 L55.4080906,14.3551797 C55.274898,14.3551797 55.1713039,14.2515856 55.1713039,14.1183932 L55.1713039,0.621564482 C55.1713039,0.488372093 55.274898,0.384778013 55.4080906,0.384778013 L57.3615809,0.384778013 C57.4947735,0.384778013 57.5983677,0.488372093 57.5983677,0.621564482 Z" id="Path"></path>
                    <path d="M69.5412974,9.81183932 L69.5412974,0.621564482 C69.5412974,0.488372093 69.6448916,0.384778013 69.7780841,0.384778013 L71.7315745,0.384778013 C71.864767,0.384778013 71.9683612,0.488372093 71.9683612,0.621564482 L71.9683612,14.1183932 C71.9683612,14.2515856 71.864767,14.3551797 71.7315745,14.3551797 L69.5708958,14.3551797 C69.3489082,14.3551797 69.2305149,14.2959831 69.1121215,14.0887949 L63.9028139,4.88372093 C63.8436172,4.7653277 63.7696213,4.80972516 63.7696213,4.92811839 L63.7696213,14.1183932 C63.7696213,14.2515856 63.6660271,14.3551797 63.5328346,14.3551797 L61.5793442,14.3551797 C61.4461517,14.3551797 61.3425575,14.2515856 61.3425575,14.1183932 L61.3425575,0.621564482 C61.3425575,0.488372093 61.4461517,0.384778013 61.5793442,0.384778013 L63.740023,0.384778013 C63.9620105,0.384778013 64.0804039,0.44397463 64.1987972,0.651162791 L69.4081049,9.85623679 C69.4525024,9.95983087 69.5412974,9.93023256 69.5412974,9.81183932 Z" id="Path"></path>
                    <path d="M74.8098018,11.5877378 C74.7506051,11.4545455 74.8098018,11.3509514 74.9429943,11.2917548 L76.7928905,10.5369979 C76.926083,10.4778013 77.0592755,10.5369979 77.0888739,10.6701903 C77.4440539,11.7653277 78.3468033,12.3276956 79.4863393,12.3276956 C80.9218588,12.3276956 81.6766164,11.5729387 81.6766164,10.4926004 C81.6766164,9.35306554 80.9810554,8.76109937 79.7379252,8.50951374 L78.7315817,8.33192389 C76.5561038,7.93234672 75.0761868,6.43763214 75.0761868,4.17336152 C75.0761868,1.95348837 76.8520872,0.0147991543 79.5899335,0.0147991543 C81.6618172,0.0147991543 83.21573,1.15433404 83.9408893,2.85623679 C84.000086,2.98942918 83.9408893,3.09302326 83.8076968,3.15221987 L81.9578006,3.89217759 C81.8246081,3.95137421 81.7210139,3.90697674 81.6618172,3.77378436 C81.2770388,2.90063425 80.5222812,2.33826638 79.5899335,2.33826638 C78.3764016,2.33826638 77.6512423,3.09302326 77.6512423,4.09936575 C77.6512423,4.9577167 78.2284099,5.60887949 79.3087493,5.83086681 L80.329892,6.00845666 C82.342579,6.39323467 84.2664711,7.71035941 84.2664711,10.3002114 C84.2664711,12.6976744 82.4905707,14.725294 79.5011385,14.725294 C77.3108614,14.7399577 75.5497602,13.5412262 74.8098018,11.5877378 Z" id="Path"></path>
                    <path d="M93.8119354,0.680761099 L97.6597195,14.1183932 C97.704117,14.2811839 97.615322,14.3551797 97.4673303,14.3551797 L95.3954465,14.3551797 C95.2770532,14.3551797 95.173459,14.2959831 95.1290615,14.1775899 L94.4335005,11.7061311 C94.389103,11.5729387 94.3299063,11.5285412 94.2411113,11.5285412 L89.1649962,11.5285412 C89.061402,11.5285412 89.0022053,11.5729387 88.972607,11.7061311 L88.277046,14.1775899 C88.2326485,14.2959831 88.1438535,14.3551797 88.010661,14.3551797 L85.9387772,14.3551797 C85.7759864,14.3551797 85.7019905,14.2811839 85.746388,14.1183932 L89.5941721,0.680761099 C89.6533688,0.44397463 89.7717621,0.384778013 89.9789505,0.384778013 L93.4567553,0.384778013 C93.6343454,0.384778013 93.7675379,0.44397463 93.8119354,0.680761099 Z M89.8013605,9.21987315 L93.5899478,9.21987315 C93.6639437,9.21987315 93.7083412,9.17547569 93.693542,9.08668076 L91.9176417,2.84143763 C91.9028425,2.76744186 91.858445,2.7230444 91.7992483,2.7230444 L91.6068591,2.7230444 C91.5476625,2.7230444 91.503265,2.76744186 91.4884658,2.84143763 L89.7125654,9.08668076 C89.6829671,9.19027484 89.7273646,9.21987315 89.8013605,9.21987315 Z" id="Shape"></path>
                    <path d="M100.175578,14.1331924 L100.175578,0.606765328 C100.175578,0.488372093 100.249574,0.384778013 100.397566,0.384778013 L102.795031,0.384778013 C102.913425,0.384778013 103.017019,0.44397463 103.076215,0.54756871 L106.317234,6.05285412 C106.420828,6.21564482 106.450426,6.21564482 106.55402,6.05285412 L109.795038,0.54756871 C109.854235,0.44397463 109.957829,0.384778013 110.076223,0.384778013 L112.473688,0.384778013 C112.606881,0.384778013 112.695676,0.488372093 112.695676,0.606765328 L112.695676,14.1479915 C112.695676,14.2663848 112.62168,14.3699789 112.473688,14.3699789 L110.4758,14.3699789 C110.342608,14.3699789 110.253813,14.2663848 110.253813,14.1479915 L110.253813,4.73572939 C110.253813,4.61733615 110.150219,4.55813953 110.076223,4.69133192 L106.716811,10.0486258 C106.539221,10.3298097 106.302434,10.3298097 106.124844,10.0486258 L102.795031,4.69133192 C102.721035,4.55813953 102.617441,4.61733615 102.617441,4.73572939 L102.617441,14.1331924 C102.617441,14.2515856 102.543445,14.3551797 102.395454,14.3551797 L100.397566,14.3551797 C100.249574,14.3551797 100.175578,14.2515856 100.175578,14.1331924 Z" id="Path"></path>
                    <path d="M132.21578,7.36997886 C132.21578,11.602537 129.403938,14.3551797 125.467359,14.3551797 L121.234796,14.3551797 C121.101604,14.3551797 120.99801,14.2515856 120.99801,14.1183932 L120.99801,0.621564482 C120.99801,0.488372093 121.101604,0.384778013 121.234796,0.384778013 L125.467359,0.384778013 C129.403938,0.384778013 132.21578,3.13742072 132.21578,7.36997886 Z M123.558266,12.0465116 L125.215773,12.0465116 C127.494845,12.0465116 129.655524,10.8625793 129.655524,7.36997886 C129.655524,3.87737844 127.480046,2.69344609 125.215773,2.69344609 L123.558266,2.69344609 C123.499069,2.69344609 123.439873,2.73784355 123.439873,2.81183932 L123.439873,11.9133192 C123.425074,12.0021142 123.469471,12.0465116 123.558266,12.0465116 Z" id="Shape"></path>
                    <path d="M137.57308,0.621564482 L137.57308,14.1183932 C137.57308,14.2515856 137.469485,14.3551797 137.336293,14.3551797 L135.382802,14.3551797 C135.24961,14.3551797 135.146016,14.2515856 135.146016,14.1183932 L135.146016,0.621564482 C135.146016,0.488372093 135.24961,0.384778013 135.382802,0.384778013 L137.336293,0.384778013 C137.469485,0.384778013 137.57308,0.488372093 137.57308,0.621564482 Z" id="Path"></path>
                    <path d="M148.169285,9.07188161 L148.169285,7.25158562 C148.169285,7.11839323 148.272879,7.01479915 148.406072,7.01479915 L154.458932,7.01479915 C154.592124,7.01479915 154.695719,7.08879493 154.695719,7.25158562 C154.562526,11.8837209 151.780282,14.7399577 147.754908,14.7399577 C143.581542,14.7399577 140.473717,11.7653277 140.473717,7.36997886 C140.473717,2.97463002 143.596342,0 147.784507,0 C150.196771,0 152.253856,1.02114165 153.511785,2.70824524 C153.615379,2.84143763 153.585781,2.94503171 153.467388,3.04862579 L151.869077,4.24735729 C151.750684,4.35095137 151.632291,4.30655391 151.528696,4.18816068 C150.670345,3.04862579 149.338419,2.42706131 147.769707,2.42706131 C144.913468,2.42706131 143.033973,4.46934461 143.033973,7.3551797 C143.033973,10.2410148 144.928267,12.2832981 147.740109,12.2832981 C149.871189,12.2832981 151.336307,11.2029598 151.809881,9.42706131 C151.82468,9.35306554 151.795081,9.29386892 151.706286,9.29386892 L148.391272,9.29386892 C148.272879,9.30866808 148.169285,9.205074 148.169285,9.07188161 Z" id="Path"></path>
                    <path d="M159.83103,0.621564482 L159.83103,14.1183932 C159.83103,14.2515856 159.727436,14.3551797 159.594244,14.3551797 L157.640753,14.3551797 C157.507561,14.3551797 157.403967,14.2515856 157.403967,14.1183932 L157.403967,0.621564482 C157.403967,0.488372093 157.507561,0.384778013 157.640753,0.384778013 L159.594244,0.384778013 C159.727436,0.384778013 159.83103,0.488372093 159.83103,0.621564482 Z" id="Path"></path>
                    <path d="M171.862755,0.621564482 L171.862755,2.45665962 C171.862755,2.58985201 171.759161,2.69344609 171.625969,2.69344609 L168.38495,2.69344609 C168.310955,2.69344609 168.266557,2.73784355 168.266557,2.81183932 L168.266557,14.1183932 C168.266557,14.2515856 168.162963,14.3551797 168.02977,14.3551797 L166.07628,14.3551797 C165.943087,14.3551797 165.839493,14.2515856 165.839493,14.1183932 L165.839493,2.81183932 C165.839493,2.75264271 165.795096,2.69344609 165.7211,2.69344609 L162.480082,2.69344609 C162.346889,2.69344609 162.243295,2.58985201 162.243295,2.45665962 L162.243295,0.621564482 C162.243295,0.488372093 162.346889,0.384778013 162.480082,0.384778013 L171.625969,0.384778013 C171.77396,0.384778013 171.862755,0.488372093 171.862755,0.621564482 Z" id="Path"></path>
                    <path d="M179.898704,0.680761099 L183.746488,14.1183932 C183.790886,14.2811839 183.702091,14.3551797 183.554099,14.3551797 L181.482215,14.3551797 C181.363822,14.3551797 181.260228,14.2959831 181.21583,14.1775899 L180.520269,11.7061311 C180.475872,11.5729387 180.416675,11.5285412 180.32788,11.5285412 L175.251765,11.5285412 C175.148171,11.5285412 175.088974,11.5729387 175.059376,11.7061311 L174.363815,14.1775899 C174.319417,14.2959831 174.230622,14.3551797 174.09743,14.3551797 L172.025546,14.3551797 C171.862755,14.3551797 171.788759,14.2811839 171.833157,14.1183932 L175.680941,0.680761099 C175.740138,0.44397463 175.858531,0.384778013 176.065719,0.384778013 L179.543524,0.384778013 C179.721114,0.384778013 179.839508,0.44397463 179.898704,0.680761099 Z M175.888129,9.21987315 L179.676717,9.21987315 C179.750713,9.21987315 179.79511,9.17547569 179.780311,9.08668076 L178.004411,2.84143763 C177.989611,2.76744186 177.945214,2.7230444 177.886017,2.7230444 L177.693628,2.7230444 C177.634431,2.7230444 177.590034,2.76744186 177.575235,2.84143763 L175.799334,9.08668076 C175.769736,9.19027484 175.799334,9.21987315 175.888129,9.21987315 Z" id="Shape"></path>
                    <path d="M186.484335,0.384778013 L188.437825,0.384778013 C188.571018,0.384778013 188.674612,0.488372093 188.674612,0.621564482 L188.674612,11.9281184 C188.674612,11.987315 188.719009,12.0465116 188.793005,12.0465116 L193.262354,12.0465116 C193.395547,12.0465116 193.499141,12.1501057 193.499141,12.2832981 L193.499141,14.1183932 C193.499141,14.2515856 193.395547,14.3551797 193.262354,14.3551797 L186.484335,14.3551797 C186.351142,14.3551797 186.247548,14.2515856 186.247548,14.1183932 L186.247548,0.621564482 C186.247548,0.488372093 186.351142,0.384778013 186.484335,0.384778013 Z" id="Path"></path>
                </g>
            </g>
        </g>
    </g>
</svg>