<svg xmlns="http://www.w3.org/2000/svg" width="144" height="13" viewBox="0 0 144 13">
  <path fill="#FFFFFF" d="M68.592,29.238 C67.1826596,29.238 65.9273388,28.9766693 64.826,28.454 L64.826,26.69 C65.955339,27.2780029 67.2106598,27.572 68.592,27.572 C69.25467,27.572 69.7399985,27.4460013 70.048,27.194 C70.3560015,26.9419987 70.5146666,26.6060021 70.524,26.186 C70.524,25.7753313 70.3816681,25.4673344 70.097,25.262 C69.8479154,25.0823324 69.4719968,24.9169588 68.9692352,24.7658752 L67.794,24.436 C67.252664,24.2866659 66.7813353,24.1070011 66.38,23.897 C65.9786647,23.686999 65.642668,23.379002 65.372,22.973 C65.101332,22.566998 64.966,22.0420032 64.966,21.398 C64.966,20.3526614 65.2786635,19.5570027 65.904,19.011 C66.5293365,18.4649973 67.4113276,18.192 68.55,18.192 C69.2313367,18.192 69.8309974,18.2549994 70.349,18.381 C70.8670026,18.5070006 71.396664,18.6959987 71.938,18.948 L71.938,20.656 C70.9206616,20.1239973 69.7913395,19.858 68.55,19.858 C67.4486612,19.858 66.898,20.3199954 66.898,21.244 C66.9073334,21.6546687 67.0356654,21.957999 67.283,22.154 C67.4994177,22.3255009 67.8533886,22.4827079 68.3449211,22.6256248 L69.53,22.952 C70.1180029,23.1106675 70.6173313,23.3019989 71.028,23.526 C71.4386687,23.7500011 71.779332,24.0696646 72.05,24.485 C72.320668,24.9003354 72.456,25.43933 72.456,26.102 C72.4466666,27.0726715 72.0990034,27.8379972 71.413,28.398 C70.7269966,28.9580028 69.7866726,29.238 68.592,29.238 Z M75.977,25.514 C76.1263341,26.9326738 76.9103262,27.642 78.329,27.642 C78.6930018,27.642 79.0476649,27.5953338 79.393,27.502 C79.7383351,27.4086662 80.1256645,27.2593344 80.555,27.054 L81.059,28.538 C80.6109978,28.7900013 80.153669,28.9696661 79.687,29.077 C79.220331,29.1843339 78.6930029,29.238 78.105,29.238 C77.2369957,29.238 76.4950031,29.0630017 75.879,28.713 C75.2629969,28.3629983 74.7986682,27.8753365 74.486,27.25 C74.1733318,26.6246635 74.017,25.8966708 74.017,25.066 C74.017,24.1979957 74.1803317,23.4536698 74.507,22.833 C74.8336683,22.2123302 75.2769972,21.7433349 75.837,21.426 C76.3970028,21.1086651 77.0223299,20.95 77.713,20.95 C78.8050055,20.95 79.6613302,21.2743301 80.282,21.923 C80.9026698,22.5716699 81.2176666,23.5213271 81.227,24.772 L81.227,25.514 L75.977,25.514 Z M77.713,22.546 C76.7983288,22.546 76.243001,23.049995 76.047,24.058 L79.253,24.058 C79.2063331,23.5353307 79.0570013,23.1526679 78.805,22.91 C78.5529987,22.6673321 78.1890024,22.546 77.713,22.546 Z M87.184,21.006 C88.192005,21.006 88.9409976,21.2626641 89.431,21.776 C89.9210025,22.2893359 90.166,23.1246609 90.166,24.282 L90.166,29 L88.29,29 L88.29,24.282 C88.29,23.7313306 88.1803344,23.3276679 87.961,23.071 C87.7416656,22.814332 87.361336,22.686 86.82,22.686 C86.1853302,22.686 85.5460032,22.9613306 84.902,23.512 L84.902,29 L83.026,29 L83.026,21.174 L84.902,21.174 L84.902,21.902 C85.6113369,21.3046637 86.3719959,21.006 87.184,21.006 Z M92.511,17.702 L94.387,17.702 L94.387,19.816 L92.511,19.816 L92.511,17.702 Z M92.511,21.174 L94.387,21.174 L94.387,29 L92.511,29 L92.511,21.174 Z M100.358,29.238 C99.4899957,29.238 98.7526697,29.0560018 98.146,28.692 C97.5393303,28.3279982 97.0843349,27.8310032 96.781,27.201 C96.4776652,26.5709969 96.326,25.8640039 96.326,25.08 C96.326,24.3053295 96.4776652,23.6053365 96.781,22.98 C97.0843349,22.3546635 97.5393303,21.8600018 98.146,21.496 C98.7526697,21.1319982 99.4899957,20.95 100.358,20.95 C101.216671,20.95 101.946997,21.1319982 102.549,21.496 C103.151003,21.8600018 103.603665,22.3546635 103.907,22.98 C104.210335,23.6053365 104.362,24.3053295 104.362,25.08 C104.362,25.8640039 104.210335,26.5709969 103.907,27.201 C103.603665,27.8310032 103.151003,28.3279982 102.549,28.692 C101.946997,29.0560018 101.216671,29.238 100.358,29.238 Z M100.358,27.6 C101.02067,27.6 101.529332,27.3736689 101.884,26.921 C102.238668,26.4683311 102.416,25.8546705 102.416,25.08 C102.416,24.3053295 102.238668,23.6940022 101.884,23.246 C101.529332,22.7979978 101.02067,22.574 100.358,22.574 C99.6859967,22.574 99.1703351,22.7979978 98.811,23.246 C98.4516649,23.6940022 98.272,24.3053295 98.272,25.08 C98.272,25.8546705 98.4516649,26.4683311 98.811,26.921 C99.1703351,27.3736689 99.6859967,27.6 100.358,27.6 Z M110.753,21.006 L110.753,22.686 L110.431,22.686 C109.665663,22.686 108.914337,22.9753304 108.177,23.554 L108.177,29 L106.301,29 L106.301,21.174 L108.177,21.174 L108.177,21.958 C108.89567,21.3233302 109.646996,21.006 110.431,21.006 L110.753,21.006 Z M113.952,25.514 C114.101334,26.9326738 114.885326,27.642 116.304,27.642 C116.668002,27.642 117.022665,27.5953338 117.368,27.502 C117.713335,27.4086662 118.100665,27.2593344 118.53,27.054 L119.034,28.538 C118.585998,28.7900013 118.128669,28.9696661 117.662,29.077 C117.195331,29.1843339 116.668003,29.238 116.08,29.238 C115.211996,29.238 114.470003,29.0630017 113.854,28.713 C113.237997,28.3629983 112.773668,27.8753365 112.461,27.25 C112.148332,26.6246635 111.992,25.8966708 111.992,25.066 C111.992,24.1979957 112.155332,23.4536698 112.482,22.833 C112.808668,22.2123302 113.251997,21.7433349 113.812,21.426 C114.372003,21.1086651 114.99733,20.95 115.688,20.95 C116.780005,20.95 117.63633,21.2743301 118.257,21.923 C118.87767,22.5716699 119.192667,23.5213271 119.202,24.772 L119.202,25.514 L113.952,25.514 Z M115.688,22.546 C114.773329,22.546 114.218001,23.049995 114.022,24.058 L117.228,24.058 C117.181333,23.5353307 117.032001,23.1526679 116.78,22.91 C116.527999,22.6673321 116.164002,22.546 115.688,22.546 Z M125.159,21.006 C126.167005,21.006 126.915998,21.2626641 127.406,21.776 C127.896002,22.2893359 128.141,23.1246609 128.141,24.282 L128.141,29 L126.265,29 L126.265,24.282 C126.265,23.7313306 126.155334,23.3276679 125.936,23.071 C125.716666,22.814332 125.336336,22.686 124.795,22.686 C124.16033,22.686 123.521003,22.9613306 122.877,23.512 L122.877,29 L121.001,29 L121.001,21.174 L122.877,21.174 L122.877,21.902 C123.586337,21.3046637 124.346996,21.006 125.159,21.006 Z M134.644,21.006 C135.652005,21.006 136.400998,21.2626641 136.891,21.776 C137.381002,22.2893359 137.626,23.1246609 137.626,24.282 L137.626,29 L135.75,29 L135.75,24.282 C135.75,23.7313306 135.640334,23.3276679 135.421,23.071 C135.201666,22.814332 134.821336,22.686 134.28,22.686 C133.64533,22.686 133.006003,22.9613306 132.362,23.512 L132.362,29 L130.486,29 L130.486,21.174 L132.362,21.174 L132.362,21.902 C133.071337,21.3046637 133.831996,21.006 134.644,21.006 Z M141.455,25.514 C141.604334,26.9326738 142.388326,27.642 143.807,27.642 C144.171002,27.642 144.525665,27.5953338 144.871,27.502 C145.216335,27.4086662 145.603665,27.2593344 146.033,27.054 L146.537,28.538 C146.088998,28.7900013 145.631669,28.9696661 145.165,29.077 C144.698331,29.1843339 144.171003,29.238 143.583,29.238 C142.714996,29.238 141.973003,29.0630017 141.357,28.713 C140.740997,28.3629983 140.276668,27.8753365 139.964,27.25 C139.651332,26.6246635 139.495,25.8966708 139.495,25.066 C139.495,24.1979957 139.658332,23.4536698 139.985,22.833 C140.311668,22.2123302 140.754997,21.7433349 141.315,21.426 C141.875003,21.1086651 142.50033,20.95 143.191,20.95 C144.283005,20.95 145.13933,21.2743301 145.76,21.923 C146.38067,22.5716699 146.695667,23.5213271 146.705,24.772 L146.705,25.514 L141.455,25.514 Z M143.191,22.546 C142.276329,22.546 141.721001,23.049995 141.525,24.058 L144.731,24.058 C144.684333,23.5353307 144.535001,23.1526679 144.283,22.91 C144.030999,22.6673321 143.667002,22.546 143.191,22.546 Z M150.772,23.05 L150.772,26.592 C150.772,26.9280017 150.827999,27.1613327 150.94,27.292 C151.052001,27.4226673 151.257332,27.488 151.556,27.488 C151.854668,27.488 152.139332,27.450667 152.41,27.376 L152.41,29.014 C151.877997,29.1260006 151.439335,29.182 151.094,29.182 C150.319329,29.182 149.759335,29.0186683 149.414,28.692 C149.068665,28.3653317 148.896,27.8613367 148.896,27.18 L148.896,23.05 L147.86,23.05 L147.86,21.356 L148.896,21.356 L148.896,18.696 L150.772,18.696 L150.772,21.356 L152.564,21.356 L152.564,23.05 L150.772,23.05 Z M160.369,27.334 L160.369,29 L154.167,29 L154.167,27.334 L157.961,22.826 L154.419,22.826 L154.419,21.174 L160.061,21.174 L160.061,22.826 L156.281,27.334 L160.369,27.334 Z M171.905,23.61 C172.51167,23.806001 172.980665,24.1139979 173.312,24.534 C173.643335,24.9540021 173.809,25.4673303 173.809,26.074 C173.809,27.0540049 173.503336,27.7866642 172.892,28.272 C172.280664,28.7573358 171.256341,29 169.819,29 L165.759,29 L165.759,18.388 L169.819,18.388 C171.11634,18.388 172.035664,18.6259976 172.577,19.102 C173.118336,19.5780024 173.389,20.2873286 173.389,21.23 C173.389,21.7993362 173.270001,22.2823313 173.032,22.679 C172.793999,23.0756687 172.418336,23.3859989 171.905,23.61 Z M167.705,22.896 L169.819,22.896 C170.883005,22.896 171.415,22.3966717 171.415,21.398 C171.415,20.8846641 171.293668,20.5160011 171.051,20.292 C170.808332,20.0679989 170.39767,19.956 169.819,19.956 L167.705,19.956 L167.705,22.896 Z M171.835,25.934 C171.835,25.4206641 171.667002,25.0473345 171.331,24.814 C170.994998,24.5806655 170.491003,24.464 169.819,24.464 L167.705,24.464 L167.705,27.432 L169.819,27.432 C170.556337,27.432 171.076665,27.3130012 171.38,27.075 C171.683335,26.8369988 171.835,26.4566693 171.835,25.934 Z M177.414,25.514 C177.563334,26.9326738 178.347326,27.642 179.766,27.642 C180.130002,27.642 180.484665,27.5953338 180.83,27.502 C181.175335,27.4086662 181.562665,27.2593344 181.992,27.054 L182.496,28.538 C182.047998,28.7900013 181.590669,28.9696661 181.124,29.077 C180.657331,29.1843339 180.130003,29.238 179.542,29.238 C178.673996,29.238 177.932003,29.0630017 177.316,28.713 C176.699997,28.3629983 176.235668,27.8753365 175.923,27.25 C175.610332,26.6246635 175.454,25.8966708 175.454,25.066 C175.454,24.1979957 175.617332,23.4536698 175.944,22.833 C176.270668,22.2123302 176.713997,21.7433349 177.274,21.426 C177.834003,21.1086651 178.45933,20.95 179.15,20.95 C180.242005,20.95 181.09833,21.2743301 181.719,21.923 C182.33967,22.5716699 182.654667,23.5213271 182.664,24.772 L182.664,25.514 L177.414,25.514 Z M179.15,22.546 C178.235329,22.546 177.680001,23.049995 177.484,24.058 L180.69,24.058 C180.643333,23.5353307 180.494001,23.1526679 180.242,22.91 C179.989999,22.6673321 179.626002,22.546 179.15,22.546 Z M188.915,21.006 L188.915,22.686 L188.593,22.686 C187.827663,22.686 187.076337,22.9753304 186.339,23.554 L186.339,29 L184.463,29 L184.463,21.174 L186.339,21.174 L186.339,21.958 C187.05767,21.3233302 187.808996,21.006 188.593,21.006 L188.915,21.006 Z M192.842,29.182 C192.076663,29.182 191.516668,29.0210016 191.162,28.699 C190.807332,28.3769984 190.63,27.8800034 190.63,27.208 L190.63,17.156 L192.506,17.156 L192.506,26.592 C192.506,26.9280017 192.561999,27.1613327 192.674,27.292 C192.786001,27.4226673 192.986665,27.488 193.276,27.488 C193.565335,27.488 193.821999,27.4600003 194.046,27.404 L194.046,29.028 C193.607331,29.1306672 193.206002,29.182 192.842,29.182 Z M195.691,17.702 L197.567,17.702 L197.567,19.816 L195.691,19.816 L195.691,17.702 Z M195.691,21.174 L197.567,21.174 L197.567,29 L195.691,29 L195.691,21.174 Z M204.14,21.006 C205.148005,21.006 205.896998,21.2626641 206.387,21.776 C206.877002,22.2893359 207.122,23.1246609 207.122,24.282 L207.122,29 L205.246,29 L205.246,24.282 C205.246,23.7313306 205.136334,23.3276679 204.917,23.071 C204.697666,22.814332 204.317336,22.686 203.776,22.686 C203.14133,22.686 202.502003,22.9613306 201.858,23.512 L201.858,29 L199.982,29 L199.982,21.174 L201.858,21.174 L201.858,21.902 C202.567337,21.3046637 203.327996,21.006 204.14,21.006 Z" transform="translate(-64 -17)"/>
</svg>
