<svg xmlns="http://www.w3.org/2000/svg" width="192" height="39" viewBox="0 0 192 39">
  <g fill="#FFFFFF" fill-rule="evenodd">
    <path fill-rule="nonzero" d="M52.592,25.238 C51.1826596,25.238 49.9273388,24.9766693 48.826,24.454 L48.826,22.69 C49.955339,23.2780029 51.2106598,23.572 52.592,23.572 C53.25467,23.572 53.7399985,23.4460013 54.048,23.194 C54.3560015,22.9419987 54.5146666,22.6060021 54.524,22.186 C54.524,21.7753313 54.3816681,21.4673344 54.097,21.262 C53.8479154,21.0823324 53.4719968,20.9169588 52.9692352,20.7658752 L51.794,20.436 C51.252664,20.2866659 50.7813353,20.1070011 50.38,19.897 C49.9786647,19.686999 49.642668,19.379002 49.372,18.973 C49.101332,18.566998 48.966,18.0420032 48.966,17.398 C48.966,16.3526614 49.2786635,15.5570027 49.904,15.011 C50.5293365,14.4649973 51.4113276,14.192 52.55,14.192 C53.2313367,14.192 53.8309974,14.2549994 54.349,14.381 C54.8670026,14.5070006 55.396664,14.6959987 55.938,14.948 L55.938,16.656 C54.9206616,16.1239973 53.7913395,15.858 52.55,15.858 C51.4486612,15.858 50.898,16.3199954 50.898,17.244 C50.9073334,17.6546687 51.0356654,17.957999 51.283,18.154 C51.4994177,18.3255009 51.8533886,18.4827079 52.3449211,18.6256248 L53.53,18.952 C54.1180029,19.1106675 54.6173313,19.3019989 55.028,19.526 C55.4386687,19.7500011 55.779332,20.0696646 56.05,20.485 C56.320668,20.9003354 56.456,21.43933 56.456,22.102 C56.4466666,23.0726715 56.0990034,23.8379972 55.413,24.398 C54.7269966,24.9580028 53.7866726,25.238 52.592,25.238 Z M59.977,21.514 C60.1263341,22.9326738 60.9103262,23.642 62.329,23.642 C62.6930018,23.642 63.0476649,23.5953338 63.393,23.502 C63.7383351,23.4086662 64.1256645,23.2593344 64.555,23.054 L65.059,24.538 C64.6109978,24.7900013 64.153669,24.9696661 63.687,25.077 C63.220331,25.1843339 62.6930029,25.238 62.105,25.238 C61.2369957,25.238 60.4950031,25.0630018 59.879,24.713 C59.2629969,24.3629983 58.7986682,23.8753365 58.486,23.25 C58.1733318,22.6246635 58.017,21.8966708 58.017,21.066 C58.017,20.1979957 58.1803317,19.4536698 58.507,18.833 C58.8336683,18.2123302 59.2769972,17.7433349 59.837,17.426 C60.3970028,17.1086651 61.0223299,16.95 61.713,16.95 C62.8050055,16.95 63.6613302,17.2743301 64.282,17.923 C64.9026698,18.5716699 65.2176666,19.5213271 65.227,20.772 L65.227,21.514 L59.977,21.514 Z M61.713,18.546 C60.7983288,18.546 60.243001,19.049995 60.047,20.058 L63.253,20.058 C63.2063331,19.5353307 63.0570013,19.1526679 62.805,18.91 C62.5529987,18.6673321 62.1890024,18.546 61.713,18.546 Z M71.184,17.006 C72.192005,17.006 72.9409976,17.2626641 73.431,17.776 C73.9210025,18.2893359 74.166,19.1246609 74.166,20.282 L74.166,25 L72.29,25 L72.29,20.282 C72.29,19.7313306 72.1803344,19.327668 71.961,19.071 C71.7416656,18.8143321 71.361336,18.686 70.82,18.686 C70.1853302,18.686 69.5460032,18.9613306 68.902,19.512 L68.902,25 L67.026,25 L67.026,17.174 L68.902,17.174 L68.902,17.902 C69.6113369,17.3046637 70.3719959,17.006 71.184,17.006 Z M76.511,13.702 L78.387,13.702 L78.387,15.816 L76.511,15.816 L76.511,13.702 Z M76.511,17.174 L78.387,17.174 L78.387,25 L76.511,25 L76.511,17.174 Z M84.358,25.238 C83.4899957,25.238 82.7526697,25.0560018 82.146,24.692 C81.5393303,24.3279982 81.0843349,23.8310032 80.781,23.201 C80.4776652,22.5709969 80.326,21.8640039 80.326,21.08 C80.326,20.3053295 80.4776652,19.6053365 80.781,18.98 C81.0843349,18.3546635 81.5393303,17.8600018 82.146,17.496 C82.7526697,17.1319982 83.4899957,16.95 84.358,16.95 C85.216671,16.95 85.946997,17.1319982 86.549,17.496 C87.151003,17.8600018 87.6036652,18.3546635 87.907,18.98 C88.2103349,19.6053365 88.362,20.3053295 88.362,21.08 C88.362,21.8640039 88.2103349,22.5709969 87.907,23.201 C87.6036652,23.8310032 87.151003,24.3279982 86.549,24.692 C85.946997,25.0560018 85.216671,25.238 84.358,25.238 Z M84.358,23.6 C85.02067,23.6 85.5293316,23.3736689 85.884,22.921 C86.2386685,22.4683311 86.416,21.8546705 86.416,21.08 C86.416,20.3053295 86.2386685,19.6940022 85.884,19.246 C85.5293316,18.7979978 85.02067,18.574 84.358,18.574 C83.6859967,18.574 83.1703351,18.7979978 82.811,19.246 C82.4516649,19.6940022 82.272,20.3053295 82.272,21.08 C82.272,21.8546705 82.4516649,22.4683311 82.811,22.921 C83.1703351,23.3736689 83.6859967,23.6 84.358,23.6 Z M94.753,17.006 L94.753,18.686 L94.431,18.686 C93.6656629,18.686 92.914337,18.9753304 92.177,19.554 L92.177,25 L90.301,25 L90.301,17.174 L92.177,17.174 L92.177,17.958 C92.8956703,17.3233302 93.6469961,17.006 94.431,17.006 L94.753,17.006 Z M97.952,21.514 C98.1013341,22.9326738 98.8853263,23.642 100.304,23.642 C100.668002,23.642 101.022665,23.5953338 101.368,23.502 C101.713335,23.4086662 102.100665,23.2593344 102.53,23.054 L103.034,24.538 C102.585998,24.7900013 102.128669,24.9696661 101.662,25.077 C101.195331,25.1843339 100.668003,25.238 100.08,25.238 C99.2119957,25.238 98.4700031,25.0630018 97.854,24.713 C97.2379969,24.3629983 96.7736682,23.8753365 96.461,23.25 C96.1483318,22.6246635 95.992,21.8966708 95.992,21.066 C95.992,20.1979957 96.1553317,19.4536698 96.482,18.833 C96.8086683,18.2123302 97.2519972,17.7433349 97.812,17.426 C98.3720028,17.1086651 98.9973299,16.95 99.688,16.95 C100.780005,16.95 101.63633,17.2743301 102.257,17.923 C102.87767,18.5716699 103.192667,19.5213271 103.202,20.772 L103.202,21.514 L97.952,21.514 Z M99.688,18.546 C98.7733288,18.546 98.218001,19.049995 98.022,20.058 L101.228,20.058 C101.181333,19.5353307 101.032001,19.1526679 100.78,18.91 C100.527999,18.6673321 100.164002,18.546 99.688,18.546 Z M109.159,17.006 C110.167005,17.006 110.915998,17.2626641 111.406,17.776 C111.896002,18.2893359 112.141,19.1246609 112.141,20.282 L112.141,25 L110.265,25 L110.265,20.282 C110.265,19.7313306 110.155334,19.327668 109.936,19.071 C109.716666,18.8143321 109.336336,18.686 108.795,18.686 C108.16033,18.686 107.521003,18.9613306 106.877,19.512 L106.877,25 L105.001,25 L105.001,17.174 L106.877,17.174 L106.877,17.902 C107.586337,17.3046637 108.346996,17.006 109.159,17.006 Z M118.644,17.006 C119.652005,17.006 120.400998,17.2626641 120.891,17.776 C121.381002,18.2893359 121.626,19.1246609 121.626,20.282 L121.626,25 L119.75,25 L119.75,20.282 C119.75,19.7313306 119.640334,19.327668 119.421,19.071 C119.201666,18.8143321 118.821336,18.686 118.28,18.686 C117.64533,18.686 117.006003,18.9613306 116.362,19.512 L116.362,25 L114.486,25 L114.486,17.174 L116.362,17.174 L116.362,17.902 C117.071337,17.3046637 117.831996,17.006 118.644,17.006 Z M125.455,21.514 C125.604334,22.9326738 126.388326,23.642 127.807,23.642 C128.171002,23.642 128.525665,23.5953338 128.871,23.502 C129.216335,23.4086662 129.603665,23.2593344 130.033,23.054 L130.537,24.538 C130.088998,24.7900013 129.631669,24.9696661 129.165,25.077 C128.698331,25.1843339 128.171003,25.238 127.583,25.238 C126.714996,25.238 125.973003,25.0630018 125.357,24.713 C124.740997,24.3629983 124.276668,23.8753365 123.964,23.25 C123.651332,22.6246635 123.495,21.8966708 123.495,21.066 C123.495,20.1979957 123.658332,19.4536698 123.985,18.833 C124.311668,18.2123302 124.754997,17.7433349 125.315,17.426 C125.875003,17.1086651 126.50033,16.95 127.191,16.95 C128.283005,16.95 129.13933,17.2743301 129.76,17.923 C130.38067,18.5716699 130.695667,19.5213271 130.705,20.772 L130.705,21.514 L125.455,21.514 Z M127.191,18.546 C126.276329,18.546 125.721001,19.049995 125.525,20.058 L128.731,20.058 C128.684333,19.5353307 128.535001,19.1526679 128.283,18.91 C128.030999,18.6673321 127.667002,18.546 127.191,18.546 Z M134.772,19.05 L134.772,22.592 C134.772,22.9280017 134.827999,23.1613327 134.94,23.292 C135.052001,23.4226673 135.257332,23.488 135.556,23.488 C135.854668,23.488 136.139332,23.450667 136.41,23.376 L136.41,25.014 C135.877997,25.1260006 135.439335,25.182 135.094,25.182 C134.319329,25.182 133.759335,25.0186683 133.414,24.692 C133.068665,24.3653317 132.896,23.8613367 132.896,23.18 L132.896,19.05 L131.86,19.05 L131.86,17.356 L132.896,17.356 L132.896,14.696 L134.772,14.696 L134.772,17.356 L136.564,17.356 L136.564,19.05 L134.772,19.05 Z M144.369,23.334 L144.369,25 L138.167,25 L138.167,23.334 L141.961,18.826 L138.419,18.826 L138.419,17.174 L144.061,17.174 L144.061,18.826 L140.281,23.334 L144.369,23.334 Z M155.905,19.61 C156.51167,19.806001 156.980665,20.1139979 157.312,20.534 C157.643335,20.9540021 157.809,21.4673303 157.809,22.074 C157.809,23.0540049 157.503336,23.7866642 156.892,24.272 C156.280664,24.7573358 155.256341,25 153.819,25 L149.759,25 L149.759,14.388 L153.819,14.388 C155.11634,14.388 156.035664,14.6259976 156.577,15.102 C157.118336,15.5780024 157.389,16.2873286 157.389,17.23 C157.389,17.7993362 157.270001,18.2823314 157.032,18.679 C156.793999,19.0756687 156.418336,19.3859989 155.905,19.61 Z M151.705,18.896 L153.819,18.896 C154.883005,18.896 155.415,18.3966717 155.415,17.398 C155.415,16.8846641 155.293668,16.5160011 155.051,16.292 C154.808332,16.0679989 154.39767,15.956 153.819,15.956 L151.705,15.956 L151.705,18.896 Z M155.835,21.934 C155.835,21.4206641 155.667002,21.0473345 155.331,20.814 C154.994998,20.5806655 154.491003,20.464 153.819,20.464 L151.705,20.464 L151.705,23.432 L153.819,23.432 C154.556337,23.432 155.076665,23.3130012 155.38,23.075 C155.683335,22.8369988 155.835,22.4566693 155.835,21.934 Z M161.414,21.514 C161.563334,22.9326738 162.347326,23.642 163.766,23.642 C164.130002,23.642 164.484665,23.5953338 164.83,23.502 C165.175335,23.4086662 165.562665,23.2593344 165.992,23.054 L166.496,24.538 C166.047998,24.7900013 165.590669,24.9696661 165.124,25.077 C164.657331,25.1843339 164.130003,25.238 163.542,25.238 C162.673996,25.238 161.932003,25.0630018 161.316,24.713 C160.699997,24.3629983 160.235668,23.8753365 159.923,23.25 C159.610332,22.6246635 159.454,21.8966708 159.454,21.066 C159.454,20.1979957 159.617332,19.4536698 159.944,18.833 C160.270668,18.2123302 160.713997,17.7433349 161.274,17.426 C161.834003,17.1086651 162.45933,16.95 163.15,16.95 C164.242005,16.95 165.09833,17.2743301 165.719,17.923 C166.33967,18.5716699 166.654667,19.5213271 166.664,20.772 L166.664,21.514 L161.414,21.514 Z M163.15,18.546 C162.235329,18.546 161.680001,19.049995 161.484,20.058 L164.69,20.058 C164.643333,19.5353307 164.494001,19.1526679 164.242,18.91 C163.989999,18.6673321 163.626002,18.546 163.15,18.546 Z M172.915,17.006 L172.915,18.686 L172.593,18.686 C171.827663,18.686 171.076337,18.9753304 170.339,19.554 L170.339,25 L168.463,25 L168.463,17.174 L170.339,17.174 L170.339,17.958 C171.05767,17.3233302 171.808996,17.006 172.593,17.006 L172.915,17.006 Z M176.842,25.182 C176.076663,25.182 175.516668,25.0210016 175.162,24.699 C174.807332,24.3769984 174.63,23.8800034 174.63,23.208 L174.63,13.156 L176.506,13.156 L176.506,22.592 C176.506,22.9280017 176.561999,23.1613327 176.674,23.292 C176.786001,23.4226673 176.986665,23.488 177.276,23.488 C177.565335,23.488 177.821999,23.4600003 178.046,23.404 L178.046,25.028 C177.607331,25.1306672 177.206002,25.182 176.842,25.182 Z M179.691,13.702 L181.567,13.702 L181.567,15.816 L179.691,15.816 L179.691,13.702 Z M179.691,17.174 L181.567,17.174 L181.567,25 L179.691,25 L179.691,17.174 Z M188.14,17.006 C189.148005,17.006 189.896998,17.2626641 190.387,17.776 C190.877002,18.2893359 191.122,19.1246609 191.122,20.282 L191.122,25 L189.246,25 L189.246,20.282 C189.246,19.7313306 189.136334,19.327668 188.917,19.071 C188.697666,18.8143321 188.317336,18.686 187.776,18.686 C187.14133,18.686 186.502003,18.9613306 185.858,19.512 L185.858,25 L183.982,25 L183.982,17.174 L185.858,17.174 L185.858,17.902 C186.567337,17.3046637 187.327996,17.006 188.14,17.006 Z"/>
    <path d="M22.6353072,8.12428846 C18.9940991,4.96608086 14.6238889,3.01087245 9.98688486,2.4 C8.36622988,3.29860438 6.89008817,4.43167905 5.6,5.75369868 C16.9220595,5.08748172 26.7709027,13.7694283 27.6725018,25.3194702 C28.0092119,29.6297957 27.0330159,33.9082832 24.9522002,37.6 C26.7159058,37.0096586 28.3643518,36.1637207 29.856583,35.1035461 C30.9430654,31.904574 31.3926948,28.4815459 31.1241458,25.0409623 C30.6084031,18.4332446 27.5935168,12.4253899 22.6353072,8.12428846"/>
    <path d="M20.9359961,15.6100101 C14.4490838,15.6100101 8.34772361,12.4471183 4.41801416,7.2 C3.65479647,8.16006067 2.97862007,9.19686552 2.4,10.2973711 C6.98543991,15.870273 13.7556744,19.2 20.9359961,19.2 C26.8095301,19.2 32.4131778,17.011729 36.8,13.0977755 C36.3919575,11.908999 35.8761356,10.773913 35.2656783,9.70343782 C31.4054851,13.4817998 26.3015946,15.6100101 20.9359961,15.6100101"/>
    <path d="M27.7494928,6.4364344 C27.7494928,18.1533856 18.3898281,27.6858054 6.885222,27.6858054 C5.37352959,27.6858054 3.86912595,27.5082399 2.4,27.1798327 C3.03470673,28.5843228 3.83064121,29.8967638 4.76447936,31.0939951 C5.46915835,31.1569448 6.17616975,31.2 6.885222,31.2 C20.2924905,31.2 31.2,20.0911663 31.2,6.4364344 C31.2,5.60532071 31.1475208,4.77806713 31.0670527,3.95526754 C29.8810229,3.02082138 28.5833289,2.22830889 27.196712,1.6 C27.5570691,3.17730474 27.7494928,4.80004013 27.7494928,6.4364344"/>
    <path d="M38.2991043,17.2240033 C34.7330361,24.1209896 27.4548976,28.5816897 19.334577,28.5816897 C11.0204774,28.5816897 3.61918687,23.8910805 0.156091529,16.8 C0.0569763758,17.5697336 0,18.3524646 0,19.1487706 C0,20.6888154 0.195262788,22.1838027 0.556113168,23.6152472 C5.14567894,28.8087105 11.9309124,32 19.334577,32 C26.5219094,32 33.1415553,28.9993387 37.7323081,24.0354958 C38.1649724,22.4775434 38.4,20.8401627 38.4,19.1487706 C38.4,18.4989017 38.3655768,17.8568312 38.2991043,17.2240033"/>
    <path d="M19.8172984,0.0243336605 C19.5053619,0.00860580676 19.1916875,0 18.8759857,0 C16.7503566,0 14.7098802,0.367675675 12.8052424,1.03596108 C8.31474603,5.57537577 5.6,11.8635497 5.6,18.6671819 C5.6,26.3005325 8.97163752,33.2700489 14.4894682,37.8658465 C15.8970928,38.2118593 17.3646718,38.4 18.8759857,38.4 C19.8013685,38.4 20.7105318,38.3284828 21.6,38.1958347 C14.0080953,34.8811153 9.02782665,27.2643828 9.02782665,18.6671819 C9.02782665,10.7703155 13.2851671,3.68031777 19.8172984,0.0243336605"/>
    <path d="M5.78712762,16 C15.4283192,16 24.0014711,10.504705 28,2.04948659 C26.9643251,1.53816092 25.8751011,1.11914176 24.742626,0.8 C21.2684075,7.93177011 13.977786,12.5537931 5.78712762,12.5537931 C4.42221405,12.5537931 3.06965796,12.4227586 1.7435822,12.1676782 C1.33019492,13.2331341 1.01301949,14.3448889 0.8,15.4933333 C2.43383597,15.8273257 4.10297904,16 5.78712762,16"/>
  </g>
</svg>
